<?xml version="1.0" encoding="utf-8"?>
<!-- Generator: Adobe Illustrator 19.0.0, SVG Export Plug-In . SVG Version: 6.00 Build 0)  -->
<svg version="1.1" id="Layer_1" xmlns="http://www.w3.org/2000/svg" xmlns:xlink="http://www.w3.org/1999/xlink" x="0px" y="0px"
	 width="2800px" height="1804.6px" viewBox="0 0 2800 1804.6" enable-background="new 0 0 2800 1804.6" xml:space="preserve">
<rect id="XMLID_60_" fill="#A06A52" width="2800" height="1804.6"/>
<rect id="XMLID_70_" y="902.3" fill="#7E4C3C" width="2800" height="902.3"/>
<rect id="XMLID_2_" y="1547.7" fill="#C39269" width="2800" height="256.9"/>
<rect id="XMLID_31_" y="1547.7" fill="#CEA481" width="2800" height="128.4"/>
<rect id="XMLID_6_" fill="#C39269" width="2800" height="185.6"/>
<rect id="XMLID_8_" y="107.8" fill="#CEA481" width="2800" height="77.8"/>
<g id="XMLID_11_" opacity="0.25">
	<path id="XMLID_466_" fill="#F9EEDE" d="M2496,1687.5c16.8,6,35,8.4,52.7,6.1c17.8-2.3,34.3-9.6,49.9-18.2
		c15.7-8.7,30.6-18.7,46.8-26.3c15.8-7.4,32.3-10.7,49.8-10c34.8,1.5,67.9,15.2,102.8,15.6c0.6,0,1.3,0,1.9,0v-15
		c-19.4,0.2-39.4-4.8-58-8.7c-16.9-3.5-34-6.9-51.3-7.1c-17.8-0.2-34.6,3.9-50.8,11.2c-30.9,13.9-58.2,39-92.8,43.6
		c-35.4,4.7-70.5-12.5-96.1-35.9c-28.6-26.1-47.5-60.7-65.7-94.4c-0.1-0.3-0.3-0.5-0.4-0.8h-16.7c12.9,24,25.5,48,40.7,69.3
		C2431.1,1648,2459.6,1674.5,2496,1687.5z"/>
	<path id="XMLID_470_" fill="#F9EEDE" d="M2472,1585c18.8,18.3,41.1,33.7,66.3,41.5c25.6,8,52,6.1,76.6-4.3
		c25.5-10.8,48-28.4,74.7-36.5c24.9-7.6,51.7-6.7,76.2,1.8c11.8,4.1,23.2,10.1,33.1,17.8c0.3,0.3,0.7,0.5,1.1,0.7V1588
		c-19.1-12.4-40.7-19.8-63.5-21.9c-26.6-2.4-52.3,3.7-76,15.5c-23.9,11.9-46.2,28.4-72.8,33.6c-24.2,4.8-49-2-70.1-14.1
		c-23.7-13.5-42-32.3-57.7-53.4H2441C2450.2,1561,2460.3,1573.6,2472,1585z"/>
	<path id="XMLID_473_" fill="#F9EEDE" d="M2606.4,1573.6c32.4-1.6,62.1-14.1,91.8-25.9h-41.3c-4.7,1.6-9.4,3.1-14.2,4.5
		c-28.6,8.1-60.1,10.6-86.8-4.5h-25.5C2551.7,1566,2578,1575,2606.4,1573.6z"/>
	<path id="XMLID_485_" fill="#F9EEDE" d="M2283.3,1558.8c57.8,73.9,105.4,176.9,204.9,201.5c48.6,12,94.7-4.5,139.1-23.3
		c23.7-10.1,47.5-20.6,72.7-26.7c26.5-6.4,53-5.7,79.3,1.5c7,1.9,14,4.2,20.8,6.8V1703c-28.3-9.8-57.8-15.1-88.8-10.3
		c-48.4,7.5-90.9,34.3-137.3,48.5c-24.6,7.5-50.4,11.1-75.8,5.9c-23.6-4.8-45.3-15.7-64.8-29.8c-40.8-29.4-70.2-70.9-98.3-111.9
		c-13.3-19.4-26.8-39.1-41.4-57.8h-19.4C2277.3,1551.3,2280.3,1555,2283.3,1558.8z"/>
	<path id="XMLID_488_" fill="#F9EEDE" d="M2554.6,1804.6h-73.8C2505.3,1807.9,2530.2,1808,2554.6,1804.6z"/>
	<path id="XMLID_492_" fill="#F9EEDE" d="M2693.8,1739.8c-27.1,7-52,20.3-77.6,31.4c-22.9,9.9-46.8,17-71.7,19.7
		c-92,9.8-188.1-32.7-238.7-111c-27.7-42.9-44.9-93.4-82.3-129.6c-0.9-0.9-1.8-1.7-2.7-2.5h-23.2c2.7,2.1,5.4,4.2,8,6.5
		c20.1,17.3,34.7,39.2,47.6,62.1c24.3,43.2,44.6,87.5,82.1,121.3c33.6,30.2,75.1,51.5,119,62c8.7,2.1,17.6,3.7,26.5,5h73.8
		c11.4-1.6,22.8-4.1,33.9-7.3c49.5-14.5,95.8-51.8,149.7-46.4c22.3,2.2,43.8,12.1,55.3,32c1.6,2.8,4.1,3.8,6.6,3.6v-20.5
		C2775.5,1735.4,2730.3,1730.4,2693.8,1739.8z"/>
	<path id="XMLID_532_" fill="#F9EEDE" d="M474.3,1725c-15.7-13.4-35.3-20.3-55.9-17.8c-20.8,2.5-41.8,13-55,29.5
		c-15.2,19-13.1,42.6-12.1,65.5c0,0.8,0.1,1.6,0.1,2.5h14.8c-0.2-7.2-0.5-14.4-0.6-21.7c-0.2-10.6,0.3-21.7,5.7-31.2
		c4.9-8.7,13-15.4,21.5-20.4c16.6-9.7,37.7-13.3,55.8-5.4c17.2,7.6,29.4,23.1,38.8,38.8c7.6,12.6,14.2,25.9,19.3,39.8h15.7
		c-3.5-10.3-7.8-20.4-12.7-30.3C500.5,1756.3,489.7,1738.2,474.3,1725z"/>
	<path id="XMLID_535_" fill="#F9EEDE" d="M439.2,1768.7c-16.3-6.2-32.1,2.7-38.9,17.8c-2.6,5.7-4.2,11.8-5.3,18h15
		c1.5-8.3,4.4-16.1,10.6-20.6c14.2-10,26.8,9,31.7,20.6h16C462.9,1789.5,455,1774.7,439.2,1768.7z"/>
	<path id="XMLID_549_" fill="#F9EEDE" d="M322.4,1714c10.1-22.8,28.1-41.1,38.4-63.9c10.4-23,11.2-48.7,2.1-72.3
		c-4.4-11.4-10.5-21.4-17.9-30.1h-20.4c4.5,4,8.6,8.4,12.2,13.2c13.2,17.7,20.4,40.9,16.8,63c-4,23.7-20,42.6-32.7,62.3
		c-6.5,10.1-12.3,20.7-15.9,32.1c-3.9,12.6-4.9,26-4.5,39.1c0.6,15.6,3.3,31.4,4.3,47.2h14.8c-0.2-3.7-0.6-7.5-0.9-11.2
		C316,1766.9,311.2,1739.2,322.4,1714z"/>
	<path id="XMLID_551_" fill="#F9EEDE" d="M253,1804.6h-13.1C244.3,1805.6,248.8,1805.7,253,1804.6z"/>
	<path id="XMLID_553_" fill="#F9EEDE" d="M132.5,1572.9c10.2,0.2,20.3-0.4,30.4-1.5c-4,0.5-7.5-3.8-7.5-7.5c0-4.4,3.5-7,7.5-7.5
		c-31.5,3.6-63.1,0.5-93.1-8.7H28.5C60.6,1563.6,96.8,1572.3,132.5,1572.9z"/>
	<path id="XMLID_554_" fill="#F9EEDE" d="M155.4,1563.9c0,3.7,3.5,8,7.5,7.5c4-0.5,7.5-3.1,7.5-7.5c0-3.7-3.4-8-7.5-7.5
		C158.8,1556.9,155.4,1559.5,155.4,1563.9z"/>
	<path id="XMLID_556_" fill="#F9EEDE" d="M9.3,1804.6c0,0,0-0.1,0-0.1c-2.5-19,5.4-39.4,11.3-57.2c6.1-18.4,12.4-36.8,14-56.2
		c1.4-17.6-2.4-34.7-10.8-50.1c-6.4-11.8-15-22.3-23.7-32.8v23.7c8.5,11.6,15.9,24,18.7,38.3c3.9,20.2-2.1,40.9-8.2,60
		c-3.5,10.8-7.3,21.6-10.4,32.5v41.9H9.3z"/>
	<path id="XMLID_557_" fill="#F9EEDE" d="M263.4,1797.8c5.1-6.4,5.9-15,5.2-22.9c-0.9-9.6-3.7-18.9-4.4-28.5
		c-0.9-11.3-0.1-22.7,2.5-33.7c9.5-39.9,44-77,30.1-120.5c-5.9-18.4-20.4-31.1-38.1-37.8c-19.8-7.5-41-6.2-61.6-3.3
		c-11.4,1.7-22.8,3.9-34.3,5.3c4.1-0.5,7.5,3.8,7.5,7.5c0,4.4-3.5,7-7.5,7.5c21.8-2.7,43.6-8.4,65.7-7.7c16,0.5,33.1,5.3,44.5,17
		c12.8,13.2,13.5,32.7,9.5,49.7c-4.6,19.8-15.1,37.4-22.9,56c-8.1,19.3-12.2,39.9-10.5,60.8c0.8,8.9,3.1,17.4,4.2,26.2
		c0.6,4.8,1.7,13.8-3.7,16.4c-3.8,1.8-8.6-0.5-12-2.2c-4.7-2.3-9.1-5-13.7-7.3c-8.9-4.5-18.2-8.6-27.6-11.8
		c-18.6-6.4-38.5-9.4-58.1-6.4c-30,4.6-52.3,24.3-75.4,42.3h23.9c10.3-8,20.8-15.6,32.7-21.1c18.8-8.8,39.7-9.1,59.6-4.3
		c10.2,2.5,20,6,29.5,10.4c9.7,4.5,18.8,10.7,28.9,14.2c0.8,0.3,1.6,0.5,2.5,0.7H253C257,1803.5,260.6,1801.2,263.4,1797.8z"/>
	<path id="XMLID_558_" fill="#F9EEDE" d="M188.9,1616.9c9-3.3,5.1-17.8-4-14.5C175.9,1605.7,179.8,1620.2,188.9,1616.9z"/>
	<path id="XMLID_559_" fill="#F9EEDE" d="M216.5,1730.9c0.1,0.3,0.2,0.5,0.2,0.6c0-0.3-0.1-0.7,0.1-1c1.4-4.1,6.4-3.2,1.1-3.9
		c-1.1-0.1-2.2-0.4-3.3-0.7c0.4,0.8,0.8,1.7,1.1,2.5C215.8,1728.5,216.3,1730.1,216.5,1730.9z"/>
	<path id="XMLID_560_" fill="#F9EEDE" d="M43.9,1595.7c0.1-0.1,0.2-0.2,0.3-0.3C44.2,1595.5,44.1,1595.5,43.9,1595.7z"/>
	<path id="XMLID_561_" fill="#F9EEDE" d="M70.6,1587.5c-9.7-4.8-22.4-10.8-33-5.4c-4.7,2.3-8,6.8-8.2,12.1
		c-0.2,6.3,4.2,12.2,7.5,17.1c7.1,10.4,15.8,19.5,23.2,29.6c7.1,9.8,13,20.5,13.3,32.9c0.2,11.5-3.5,22.5-6.1,33.5
		c-2.6,10.9-6.4,25.3,0.2,35.6c7.2,11,23,9.2,34,6.2c12.6-3.5,23.8-10.5,35.5-16.1c11.1-5.3,23.6-8.5,36-7.5
		c12.6,1,22,8.5,33.4,13.1c7.4,3,22.3,6.4,24.9-4.7c1.5-6.4-2.5-13.4-5.5-18.7c-3.2-5.8-6.8-11.2-10.4-16.7
		c-4.9-7.3-6.7-16-5.7-24.8c1.6-14.1,11.4-22.3,18.7-33.5c6.8-10.6,9.3-26.3-0.9-35.8c-11.5-10.7-29.4-6.7-42.6-2
		c9.1-3.3,13,11.2,4,14.5c6.9-2.4,25.2-9.3,29.8,0.5c4,8.6-5.4,18.4-10.2,24.4c-6.8,8.6-11.7,17.5-13.3,28.5
		c-1.5,10.7-0.3,22.1,4.8,31.8c4.2,8.1,10.7,15.7,14.6,23.7c1.1,0.3,2.2,0.6,3.3,0.7c5.3,0.7,0.3-0.2-1.1,3.9
		c-0.1,0.4-0.1,0.8-0.1,1c0.1,0.4,0,0.3,0,0c0-0.1-0.1-0.3-0.2-0.6c-0.3-0.8-0.8-2.4-0.8-2.5c-0.3-0.9-0.7-1.7-1.1-2.5
		c-1.6-0.5-3.1-1.1-4.6-1.8c-10.3-4.8-19.3-10.8-30.8-12.6c-11.3-1.8-22.8-0.7-33.8,2.6c-11.1,3.3-21,9-31.3,14.1
		c-4.8,2.4-9.7,4.6-14.9,6.2c-4.6,1.4-12.8,3.9-17.5,1.7c-3.1-1.4-2.9-5.6-2.7-8.5c0.3-5.9,1.8-11.9,3.2-17.6
		c2.5-10.3,5.5-20.6,6.1-31.3c0.7-11.5-2.1-22.7-7.4-32.9c-5.1-9.7-12.2-18.2-19.1-26.6c-3.1-3.7-6.2-7.4-9-11.3
		c-1.6-2.2-3.2-4.4-4.7-6.7c-0.7-1.1-1.5-2.3-2.1-3.5c-0.5-0.9-0.9-2.7-1.7-2.2c-0.1,0.1-0.2,0.2-0.3,0.3c0.1-0.1,0.2-0.2,0.3-0.3
		c2.4-2,8.9,0.9,10.9,1.7c5.5,2,10.7,4.8,15.8,7.6c11,6.1,21.8,12.6,34.1,15.8c13.3,3.5,27.3,5.9,41.1,5.7
		c15.1-0.1,28.7-4.2,42.8-9.2c-9.1,3.2-13-11.3-4-14.5c-14.1,5.1-27.4,9-42.5,8.7c-13.2-0.3-27.2-2.6-39.7-7.1
		C91.4,1600,81.4,1592.8,70.6,1587.5z"/>
	<path id="XMLID_562_" fill="#F9EEDE" d="M156.4,1662.8c-3.2,3.1-2.5,7.5,0,10.6c6.3,7.3,16.9-3.3,10.6-10.6
		C164.4,1659.6,159,1660.2,156.4,1662.8z"/>
	<path id="XMLID_563_" fill="#F9EEDE" d="M105.6,1647.3c-3.5,6.8-1.1,14.5,3.3,20.2c9.6,12.6,26.5,24,42.3,26.6
		c7.3,1.2,16-0.1,20.3-6.8c5.5-8.5,1-17.6-4.6-24.6c6.3,7.3-4.3,17.9-10.6,10.6c1.7,2.1,4.6,5.7,0.7,6.2c-4,0.5-8.6-1.5-12.2-3.1
		c-8.7-4-19.8-10.6-24.8-19.1c-4.2-7,7.1-3.9,10.8-2.6c10.1,3.4,18.7,10.7,25.5,18.6c-2.5-3.1-3.2-7.5,0-10.6c2.7-2.6,8-3.2,10.6,0
		c-10.7-12.3-27-24.5-44-24.8C116,1637.9,108.9,1640.9,105.6,1647.3z"/>
	<path id="XMLID_566_" fill="#F9EEDE" d="M566.2,1720.2c-10.3-20.3-26.6-37.5-46.8-48.2c-9.9-5.2-20.6-9.1-31.6-11
		c-11.5-2-23.2-1.8-34.6-4.1c-10-2.1-18.9-6.6-25.3-14.8c-5.6-7.2-8.8-16-11.2-24.7c-5.7-20.6-7.5-42-13.9-62.5
		c-0.7-2.3-1.5-4.7-2.3-7h-15.9c6.1,16.9,9.7,34.5,13,52.3c3.5,19,7.9,39.1,20.9,54.1c15.7,18.2,38.8,18,60.7,20.7
		c21.8,2.6,42.3,13.1,57.4,29.1c14.9,15.8,23.4,36.3,27.9,57.3c3.1,14.4,4.5,28.9,5,43.5h14.9c-0.2-6.3-0.5-12.6-1.1-18.8
		C581.2,1763.1,576.5,1740.6,566.2,1720.2z"/>
	<path id="XMLID_569_" fill="#F9EEDE" d="M619.9,1722.4c-14.4-39.9-45.5-73.5-84.5-90.2c-9.8-4.2-19.9-7.4-30.4-9.2
		c-11.4-2-24.9-1.6-33.7-10.4c-6.4-6.4-7.7-15.8-8.7-24.5c-1.2-11.2-2.8-21.8-6.3-32.5c-0.9-2.6-1.8-5.3-2.8-7.9h-16.1
		c2.4,5.8,4.5,11.8,6.3,17.9c2.9,10,3.4,20.2,4.9,30.5c1.4,9.8,4.6,19.4,11.6,26.7c8.6,9,20.3,11.9,32.2,13.5
		c20.9,2.8,40.3,9.3,58,21c17.2,11.3,31.9,26.6,42.8,44.1c19.2,31.1,22.5,67.4,24.1,103.3h14.9c-0.2-3.9-0.4-7.7-0.6-11.6
		C630.1,1769.3,628,1744.8,619.9,1722.4z"/>
	<path id="XMLID_572_" fill="#F9EEDE" d="M676.3,1727.8c-17-44.4-47.7-83.3-87.6-109.4c-9.9-6.5-20.3-12.1-31.2-16.7
		c-11.5-4.9-23.8-8.2-34.9-14c-11.1-5.8-18.6-14.4-22.1-26.6c-1.2-4.4-2-8.9-2.6-13.4h-15.1c0.7,6.7,1.8,13.3,3.9,19.6
		c3.9,12,11,21.9,21.3,29.1c10.5,7.3,23.1,11,34.9,15.5c43.7,16.3,80.3,49,103.9,89c11.9,20.3,20.5,42.5,25,65.6
		c2.2,11.2,3.3,22.6,3.5,34c0,1.3,0,2.6,0,4h15c0-2.6,0-5.2-0.1-7.8C689.5,1773.2,684.7,1749.8,676.3,1727.8z"/>
	<path id="XMLID_576_" fill="#F9EEDE" d="M876.7,1554.1c-3-2.2-6.2-4.4-9.3-6.4h-30c0.5,0.2,1,0.5,1.4,0.7
		c49.4,25.4,89.4,69.3,109.4,121.3c16.6,43.2,19,90.1,29.4,134.9h15.1c-8.7-35.8-11.8-73.7-20.7-108.9
		C957.6,1638.7,924.3,1588.7,876.7,1554.1z"/>
	<path id="XMLID_577_" fill="#F9EEDE" d="M766.3,1747.3c-1.2-16.4-4.9-32.5-9.7-48.2c-9-29.5-22.8-59.4-22.9-90.8
		c-0.1-21.5,5.8-45.1,21.5-60.6h-19.4c-2.6,3.7-4.9,7.6-6.8,11.8c-11.4,24.6-12.4,52.1-6.8,78.4c7.1,33,22.3,63.9,27.7,97.3
		c3.7,22.9,1.7,46.2-1,69.3h14.9c0.3-2.6,0.6-5.1,0.8-7.7C766.4,1780.4,767.5,1763.8,766.3,1747.3z"/>
	<path id="XMLID_580_" fill="#F9EEDE" d="M855.7,1617.1c-8.5-9-17.8-18.3-28.4-24.8c-10.1-6.2-23.7-10.6-35.1-5
		c-12.6,6.2-14.5,20.9-13.4,33.5c1.2,13.4,4.9,26.3,9.8,38.7c9.6,24.6,24.3,48.8,27,75.5c2.5,23.8-5.1,46.8-11.6,69.6h15.5
		c1.5-5.2,3.1-10.3,4.4-15.4c3.6-13.2,6.5-26.8,7.1-40.5c0.5-13.5-1.9-27-6-39.9c-8.1-25-22.1-47.7-28.5-73.3
		c-1.6-6.1-2.6-12.3-2.9-18.7c-0.2-5-0.4-12.2,4.2-15.5c7.7-5.6,20.6,2.4,26.7,7.1c39.5,30.4,63.3,77.5,79.6,123.4
		c8.5,23.9,15.3,48.3,21.9,72.8h15.5c-4.6-17.2-9.2-34.3-14.5-51.3C911.6,1704.2,891.3,1655.1,855.7,1617.1z"/>
	<path id="XMLID_590_" fill="#F9EEDE" d="M849.4,1684.5c-0.4,0.6-1.2,1.5-1.8,1.9c0.2,0.1,0.5,0.2,0.9,0.3c0.3,0.1,0.6,0.2,0.9,0.3
		c0-0.2-0.1-0.3-0.1-0.5C849.2,1686,849.3,1685,849.4,1684.5z"/>
	<path id="XMLID_591_" fill="#F9EEDE" d="M847.7,1671.3c-12.2-0.6-14.7,11.9-12.4,21.3c1.6,6.7,4.9,13,6.9,19.7
		c2.1,7.1,3.7,14.3,4.7,21.6c2,14.2,2.1,28.7,2,43.1c0,9-0.6,18.3-0.4,27.5h15.4c-0.3-23.1,1.1-46.2-1.8-69.2
		c-1.5-12.2-4.1-24.2-8.4-35.8c-1.5-4.1-3.7-8.2-4.3-12.6c-0.3-0.1-0.6-0.2-0.9-0.3c-0.4-0.1-0.7-0.2-0.9-0.3
		c-0.3,0.2-0.5,0.2-0.4-0.1c0,0,0.2,0,0.4,0.1c0.5-0.4,1.4-1.3,1.8-1.9c0-0.3,0.1-0.4,0.1-0.4c0.1,0,0,0.2-0.1,0.4
		c-0.1,0.6-0.1,1.5-0.1,2c0,0.2,0.1,0.3,0.1,0.5c6.8,2.8,10.3,10.8,13.2,17.1c3.6,7.9,6.4,16.2,9.2,24.4
		c8.2,24.6,11.2,50.3,11.5,76.1h15c-0.2-28.3-3.8-56.8-13.2-83.5C878.9,1703.5,870.7,1672.4,847.7,1671.3z"/>
	<path id="XMLID_594_" fill="#F9EEDE" d="M653.3,1592.5c6.1-3.4,9.3-10.3,10.6-16.9c1.6-8.4,0.7-16.5,0.7-25c0-1,0-1.9,0.1-2.9h-15
		c-0.1,7.5,1,15,0,22.5c-0.7,4.9-1.6,10.7-7.3,8.7c-8.2-2.9-16.3-6.9-24.2-10.7c-12.3-5.8-24.6-12.3-35.5-20.5h-22.9
		c18.6,18.4,43.4,30.5,67.3,40.8C635.2,1592.1,644.5,1597.4,653.3,1592.5z"/>
	<path id="XMLID_614_" fill="#F9EEDE" d="M1030.2,1616.3c20.1,26.8,42.1,57.1,72.7,72.7c13.9,7,30.5,11.5,45.9,7.2
		c15.7-4.4,26.2-18,29.2-33.7c3.3-17.3-0.1-35.2-3.7-52.2c-4.1-19.4-9.8-38.3-15.4-57.3c-0.5-1.8-1-3.5-1.5-5.3H1142
		c4.9,17.3,10,34.5,14.4,51.9c5.7,22.5,21,74.9-13.5,82.6c-13.7,3.1-28.8-3.3-40.1-10.6c-13.8-8.9-25.7-21.1-36.4-33.5
		c-22.1-25.5-40-54.4-63-79.2c-3.6-3.9-7.3-7.6-11-11.3h-22.1C993,1568.1,1011.8,1591.7,1030.2,1616.3z"/>
	<path id="XMLID_619_" fill="#F9EEDE" d="M1113.4,1610.4c15.5-17.8,9.3-41.9,3.5-62.7h-15.4c1.8,6.4,3.5,12.8,4.9,19.3
		c1.8,8.1,3.2,17.8,0.3,25.9c2.2,2.3,4.4,4.6,6.7,6.9c-3.5,0-7.1,0-10.6,0c1.8-2.1,3.1-4.4,3.9-6.9c-14.6-15.1-29.2-30.1-43.8-45.2
		h-20.9c20.2,20.9,40.5,41.8,60.7,62.7C1105.5,1613.2,1110.8,1613.4,1113.4,1610.4z"/>
	<path id="XMLID_620_" fill="#F9EEDE" d="M1113.4,1599.8c-2.2-2.3-4.4-4.6-6.7-6.9c-0.9,2.5-2.1,4.8-3.9,6.9
		C1106.3,1599.8,1109.9,1599.8,1113.4,1599.8z"/>
	<path id="XMLID_649_" fill="#F9EEDE" d="M1155.6,1760.3c21.6-6.5,40.4-20,54.1-37.8c13.4-17.4,21.5-38.5,22.5-60.5
		c1.3-27.5-8.2-54-18.4-79.1c-4.8-11.7-9.7-23.4-14.1-35.2h-16c5.4,14.8,11.7,29.3,17.6,44.1c10.1,25.2,19.5,52.8,14.8,80.3
		c-3.8,22.7-16.6,43.6-34.5,57.9c-19.9,16-43.4,17.7-66.9,24.9c-20,6.1-36.6,18.4-43.7,38.7c-1.2,3.6-2.2,7.3-2.8,11h15.2
		c1.2-6.1,3.6-11.9,7.3-17.1C1105.3,1767,1133.7,1767,1155.6,1760.3z"/>
	<path id="XMLID_652_" fill="#F9EEDE" d="M1205.4,1785.4c19.6-14.6,44.1-21,64.5-34.3c19.4-12.7,33.5-30.8,39.1-53.5
		c12.7-51.4-13.6-99.3-37.9-142.6c-1.4-2.4-2.7-4.9-4.1-7.3h-17.1c0.5,0.8,0.9,1.7,1.4,2.5c13.5,24.7,29.2,48.9,38.2,75.7
		c7.8,23.3,11.1,49.5,3.5,73.3c-8.1,25.5-28.9,39.5-52,50.6c-21.2,10.3-43.8,19-59.4,37.5c-4.3,5.1-8.3,10.9-11.3,17.1h17.1
		C1192.5,1796.8,1199.1,1790.1,1205.4,1785.4z"/>
	<path id="XMLID_656_" fill="#F9EEDE" d="M1849.2,1644.9c-38.4-27.9-78.1-57.7-105.3-97.2h-17.9c15.3,24.3,35.7,45.7,57.1,64.4
		c64.5,56.5,164.9,104.7,189.8,192.4h15.4c-5.2-19.7-14.3-38.4-25.8-55.2C1933.1,1706.6,1890.6,1675,1849.2,1644.9z"/>
	<path id="XMLID_657_" fill="#F9EEDE" d="M1348.7,1738.1c17.2-42.9,20.3-92.3,5.7-136.4c-6.2-18.9-15.3-36.6-25-54h-17.3
		c8.5,14.9,16.7,29.8,23.2,45.6c9.2,22.5,13.6,46.4,13.2,70.7c-0.8,46.9-19.2,93.7-51,128.2c-4,4.3-8.2,8.4-12.5,12.4h21.5
		c2.1-2.2,4.1-4.4,6.1-6.7C1328,1780,1339.9,1759.8,1348.7,1738.1z"/>
	<path id="XMLID_663_" fill="#F9EEDE" d="M1802,1682.3c-19-19.2-39.7-36.2-60.4-53.5c-19.4-16.3-39.1-33.4-54.1-54
		c-6.3-8.6-11.4-17.6-15.6-27.1h-16.4c1,2.7,2.1,5.3,3.3,8c21.2,46.6,65.1,76.7,102.6,109.2c42.6,36.9,79.4,80.4,108.3,128.8
		c2.1,3.6,4.2,7.2,6.2,10.8h17c-10.3-20.6-23.3-40-36.7-58.5C1839.8,1723.5,1821.7,1702.1,1802,1682.3z"/>
	<path id="XMLID_664_" fill="#F9EEDE" d="M1450.9,1632.7c-0.5-22.3-4.8-44.4-13.5-64.9c-3-7.1-6.5-13.7-10.6-20.1h-17.8
		c11.3,15.4,18.8,33.3,22.9,51.9c10.4,46.2-0.3,94-20.7,135.9c-10.9,22.4-24.4,43.4-39,63.6c-1.3,1.8-2.7,3.6-4.2,5.5h17.9
		c8.9-12.3,17.7-24.6,25.4-37.8C1435.2,1726.2,1452,1680.3,1450.9,1632.7z"/>
	<path id="XMLID_668_" fill="#F9EEDE" d="M1762.6,1745.6c-29-26.6-57.9-53.2-83.3-83.3c-24.9-29.4-46.7-62.4-59.6-98.9
		c-1.8-5.2-3.4-10.4-4.8-15.6h-15.6c8.1,31.5,22.7,61.1,41,88c21.8,32.2,48.4,60.8,76.3,87.7c27.1,26.1,58.9,49.6,80.1,81.2h17.6
		C1801.1,1782.1,1781.8,1763.1,1762.6,1745.6z"/>
	<path id="XMLID_669_" fill="#F9EEDE" d="M1462.8,1765.3c17.2-38.3,32.6-78.5,41.7-119.6c7-31.7,10.4-66.2,1.9-98h-15.5
		c3.8,12.6,5.3,25.9,5.5,39.1c0.4,38.4-10.6,75.9-23.1,111.8c-7.5,21.5-16,42.7-25.4,63.5c-6.4,14-14.5,27.9-20.2,42.4h16.5
		c1.3-2.8,2.6-5.5,3.9-8.2C1453,1786,1458.1,1775.8,1462.8,1765.3z"/>
	<path id="XMLID_672_" fill="#F9EEDE" d="M1634.1,1716.6c-8.3-21.2-12.7-43.8-22.5-64.5c-4.6-9.9-10.8-19.3-18.8-26.7
		c-9.3-8.6-22.3-16.6-35-10.3c-10.9,5.4-15.3,18.7-17.1,29.9c-2.2,13.8-2.8,27.8-3,41.7c-0.4,27.4,1.1,56-9.1,82
		c-5.2,13.3-14.8,24.2-23.3,35.7h18.9c7-9.3,13.5-18.6,18-29.5c5.2-12.5,7.7-25.9,9-39.3c2.7-27.6-0.1-55.5,3.5-83
		c0.9-6.9,2.7-24.1,12.4-25c5.1-0.5,10.6,4.2,14.2,7.4c3.9,3.5,7.4,7.4,10.3,11.8c12.2,18.2,16.7,40.4,23.5,60.9
		c6.8,20.6,15.9,40.1,32.1,55c15.4,14.1,34,23.8,52.1,33.7c4.7,2.6,9.4,5.2,14,7.9h27.6c-20.9-16.3-47.8-26.9-68.9-41.2
		C1654.5,1751.5,1641.8,1736.4,1634.1,1716.6z"/>
	<path id="XMLID_675_" fill="#F9EEDE" d="M1565.7,1804.6h48.6c-2.6-1.3-5.3-2.6-8.1-3.6C1592.9,1795.7,1576.9,1795.1,1565.7,1804.6z
		"/>
	<path id="XMLID_678_" fill="#F9EEDE" d="M1545,1517c2-0.8,0.8-0.7-0.4-1.8c-0.3-0.3-0.6-0.6-0.9-0.9c0,0.7,0,1.4,0.2,1.9
		C1544.3,1517.4,1542.5,1518,1545,1517z"/>
	<path id="XMLID_683_" fill="#F9EEDE" d="M1954.7,1645.6c-44-31.5-100-52.9-132.4-97.9h-18c0.1,0.2,0.2,0.4,0.3,0.6
		c15,23.9,36.4,42.4,59.6,58c24.3,16.4,50.4,30,74.6,46.6c23.4,16,45.4,34.2,64.6,55.1c25.8,28.1,44.3,61,50.8,96.7h15.5
		c-1.8-12.7-5.2-25.5-10.4-38.3C2038.6,1716.1,1998.2,1676.7,1954.7,1645.6z"/>
	<path id="XMLID_689_" fill="#F9EEDE" d="M2242.5,1674.8c-20.9-37.8-44.7-75.9-77.8-104.3c-10.3-8.8-21.5-16.6-33.4-22.8h-45
		c9.8,1.9,19.4,4.6,28.7,8.7c38.8,16.9,67.5,50.3,90.2,85c34.2,52.3,58.6,115.4,99.8,163.2h20.7
		C2290.5,1767.9,2266.2,1717.7,2242.5,1674.8z"/>
	<path id="XMLID_690_" fill="#F9EEDE" d="M2066.7,1673.6c-13.2-16.4-28.5-30.9-45.4-43.5c-17.4-13-36.5-23.4-55.4-34
		c-24.5-13.8-49.2-28.4-68.4-48.3h-20.2c4.9,6.4,10.4,12.3,16.5,17.9c32.6,29.8,74.4,46.3,110.6,70.8c35.1,23.8,62.9,57.1,81.7,95.1
		c11.4,23,19.3,47.8,23.5,73.1h15.2c-1-6.4-2.2-12.7-3.6-19C2111.8,1744.7,2093.1,1706.1,2066.7,1673.6z"/>
	<path id="XMLID_691_" fill="#F9EEDE" d="M2661.5,1797.6c-10.2,1.9-20.2,4.3-30.2,7h136C2733.5,1792.2,2697.7,1790.9,2661.5,1797.6z
		"/>
	<path id="XMLID_695_" fill="#F9EEDE" d="M2197.1,1680.9c-16.1-26.6-35.5-50.4-57.2-72.6c-15.4-15.7-45.9-53.1-69-27.5
		c-21.7,24,3.2,54.6,18.7,73.8c19.1,23.7,40.4,45.8,56.2,72c14.5,24.1,24.9,50.5,31,78h15.2c-8.9-41.6-27.1-80.7-53.6-114.7
		c-9.3-11.9-19.3-23.2-29-34.8c-9.4-11.2-19.3-22.5-26.6-35.3c-5-8.8-9.1-22.8,0.4-30.3c10.4-8.3,24.1,7.6,30.7,14.1
		c21.6,21.2,42.6,43,59.6,68.2c16.8,24.9,30.4,51.7,43.9,78.5c9.2,18.2,18.5,36.5,28.7,54.3h17.3c-8.2-13.7-15.7-27.8-22.9-41.8
		C2226.4,1735.3,2213.1,1707.3,2197.1,1680.9z"/>
</g>
<g id="XMLID_10_" opacity="0.25">
	<path id="XMLID_343_" fill="#F9EEDE" d="M2508.7,119.9c24.5,16.8,56.8,19.1,85.1,12.2c31.3-7.5,58.7-25.6,84.1-44.7
		c34.6-26.1,66.5-55.4,95.5-87.5h-20.3c-20.1,21.5-41.7,41.6-64.5,60.2c-23.6,19.2-48.7,38.5-77,50.3c-25.7,10.8-56.1,14.8-82.4,3.6
		c-44.2-18.8-51.4-69.9-54.7-114.1h-15C2462.8,45.1,2469.6,93.2,2508.7,119.9z"/>
	<path id="XMLID_346_" fill="#F9EEDE" d="M2516.3,26.8c0.2,12.3,0.7,25.2,5.4,36.7c10.4,25,38.9,28.5,61.5,18.7
		c11.5-5,21.8-12.5,32-19.7c10.6-7.5,20.9-15.3,31.1-23.3c15.6-12.4,30.8-25.5,45.3-39.1h-22c-22.6,20.3-46.5,39.1-71.5,56.2
		c-9.7,6.6-20,13.5-31.7,15.8c-9.8,1.9-21.5-0.2-27.7-8.8c-6.2-8.6-6.7-20.4-7.1-30.6c-0.4-10.9,0-21.8,0.7-32.7h-15
		C2516.5,8.9,2516.2,17.9,2516.3,26.8z"/>
	<path id="XMLID_348_" fill="#F9EEDE" d="M2607.5,0h-27C2588.5,4.1,2598.4,3.1,2607.5,0z"/>
	<path id="XMLID_354_" fill="#F9EEDE" d="M2395,91.6c-5,23.8-8.3,47.7-9.2,72c-0.3,7.3-0.3,14.7-0.2,22h14.9
		c-0.1-14.8,0.4-29.6,1.8-44.3c2.3-25,8.2-49.4,13.4-73.9c4.8-22.2,8.8-44.6,9.6-67.3h-15c-0.3,7-0.8,14-1.6,21
		C2406,44.8,2400,68.2,2395,91.6z"/>
	<path id="XMLID_355_" fill="#F9EEDE" d="M2216.6,112.7c1.4,22.2,2,44.4,5.2,66.4c0.3,2.2,0.7,4.4,1.1,6.5h15.2
		c-3.5-18.1-4.5-36.6-5.4-55c-1.1-21.1-2.2-42.3-6.4-63.1c-4.3-21.4-12.7-41.2-25.4-59c-2-2.8-4-5.6-6.1-8.4h-19.1
		c12.1,15.1,23.5,30.7,30,49.1C2212.9,69.5,2215.3,91.2,2216.6,112.7z"/>
	<path id="XMLID_360_" fill="#F9EEDE" d="M2254.7,28c8.6,39.1,8.7,79.6,14,119.1c1.7,12.9,3.9,25.7,6.9,38.4h15.4
		c-2.5-9.8-4.4-19.6-6-29.6c-6.2-38.9-6.9-78.4-13.1-117.2c-2.1-13.2-5-26.6-10.5-38.8h-16.8c0.1,0.2,0.2,0.3,0.3,0.5
		C2249.7,9,2252.6,18.5,2254.7,28z"/>
	<path id="XMLID_361_" fill="#F9EEDE" d="M2341.9,134.2c1.5,17.1,2.8,34.2,2.5,51.4h15.1c0-2.6,0-5.2,0-7.7
		c-0.3-41.3-8.3-82.1-8-123.4c0.1-18.7,2.8-36.5,7.1-54.5h-15.5c-1.3,5.3-2.5,10.5-3.4,15.9C2333.1,55.2,2338.3,94.8,2341.9,134.2z"
		/>
	<path id="XMLID_363_" fill="#F9EEDE" d="M2327.3,145.2c-0.1,0.4-0.1,0.8-0.2,1.1C2327.2,146,2327.2,145.6,2327.3,145.2z"/>
	<path id="XMLID_364_" fill="#F9EEDE" d="M2314.6,138.7c0.3,0.5,0.6,1.1,0.9,1.6c0.3,0.6,0.6,1.2,1.1,1.7c-2.2,1.7-3.6,2.4-4.1,2.1
		c0.3,7.6,11.3,10.7,14.1,4c0.2-0.6,0.4-1.1,0.5-1.8c0.1-0.4,0.1-0.8,0.2-1.1C2327.9,138.2,2318.9,134.7,2314.6,138.7z"/>
	<path id="XMLID_365_" fill="#F9EEDE" d="M2316.6,142c-0.4-0.5-0.8-1.1-1.1-1.7c-0.3-0.5-0.6-1.1-0.9-1.6c-0.9,0.9-1.6,2.1-2,3.7
		c-0.1,0.6-0.1,1.2-0.1,1.7C2313,144.5,2314.3,143.8,2316.6,142z"/>
	<path id="XMLID_366_" fill="#F9EEDE" d="M2304.5,150.9c6.5,8.4,18.7,7,22.1-2.8c-2.8,6.7-13.8,3.6-14.1-4c-0.3-0.2-0.2-0.8,0.1-1.7
		c0.4-2.2,0.6-4.4,0.7-6.5c-0.2-0.5-0.4-1-0.7-1.5c-1.6-3.8-2.9-7.6-4-11.6c-2.5-8.5-4.2-17.2-5.2-26c-1-8.9-1.5-17.9-1.7-26.8
		c-0.2-6.8-1-16.4,2.4-22.9c-0.4-1.6-0.8-3.1-0.6-3.3c3.1-0.5,3.9-0.3,2.4,0.6c-0.4,0.4-0.8,0.8-1,1.3c-0.3,0.4-0.6,0.9-0.8,1.4
		c0.4,1.6,0.9,3.3,1,3.7c0.8,4.3,1,8.6,1.2,13c0.4,9.4,0,18.8,0.9,28.1c1.4,14.6,6.7,29.2,6.1,43.9c0.4,1,0.9,1.9,1.3,2.9
		c4.3-4,13.2-0.6,12.6,6.5c1.4-8.9,1.1-17.6-0.3-26.5c-1.5-9.3-4-18.3-4.8-27.7c-0.9-10-0.4-20-0.9-30c-0.5-8.6-0.7-21.7-7.2-28.2
		c-7-7-17-2.5-21.6,4.7c-4.9,7.7-5.6,18.2-5.7,27.1c-0.1,19.2,1.5,39.2,6.3,57.8C2295.4,131.8,2298.5,143.1,2304.5,150.9z"/>
	<path id="XMLID_367_" fill="#F9EEDE" d="M2305.9,44.4c1.5-0.9,0.7-1.1-2.4-0.6c-0.2,0.2,0.2,1.7,0.6,3.3c0.2-0.5,0.5-0.9,0.8-1.4
		C2305.1,45.2,2305.5,44.8,2305.9,44.4z"/>
	<path id="XMLID_368_" fill="#F9EEDE" d="M2312.6,142.4c-0.4,1-0.4,1.5-0.1,1.7C2312.5,143.6,2312.5,143,2312.6,142.4z"/>
	<path id="XMLID_369_" fill="#F9EEDE" d="M2314.6,138.7c-0.5-0.9-0.9-1.9-1.3-2.9c-0.1,2.2-0.3,4.4-0.7,6.5
		C2313,140.8,2313.7,139.6,2314.6,138.7z"/>
	<path id="XMLID_370_" fill="#F9EEDE" d="M2327.1,146.4c-0.1,0.6-0.3,1.2-0.5,1.8C2326.8,147.6,2327,147,2327.1,146.4z"/>
	<path id="XMLID_375_" fill="#F9EEDE" d="M2794.3,151.7c-0.6-13.1-1.5-26.7-7.4-38.6c-12.6-25.6-44.7-26-66.2-12.1
		c-23.9,15.5-36.8,41.8-57.3,61c-8.1,7.6-17.6,11.8-28.3,14.3c-12.4,2.8-25.2,4.9-37.9,5.6c-26.8,1.4-54-3.1-78.4-14.4
		c-6.2-2.9-12.3-6.2-18.1-9.8c-5.6-3.5-10.9-7.7-16.8-10.8c-11.7-6.2-24.8-6.6-35.2,2.3c-9.9,8.5-13.2,22-14.9,34.4
		c-0.1,0.6-0.2,1.3-0.2,1.9h15c0.1-0.4,0.1-0.9,0.2-1.3c1.5-9.4,4.5-24.3,15.7-26.9c5.3-1.2,10.4,1.5,14.7,4.1
		c5.8,3.5,11.1,7.5,16.9,11c8.8,5.2,18,9.6,27.5,13.1h130.9c18.4-8.7,31.1-25,44-41.2c13.8-17.4,34.5-43.7,60.1-36.9
		c11.2,3,16.3,12.3,18.7,23c2.9,13,2.8,27.1,2.5,40.4c-0.1,4.9-0.4,9.9-0.8,14.8h15C2794.6,174.3,2794.8,163,2794.3,151.7z"/>
	<path id="XMLID_378_" fill="#F9EEDE" d="M2703.9,185c-0.3,0.2-0.6,0.4-0.9,0.6h41.7c-3.5-3-7.7-5.4-12.6-6.8
		C2721.9,175.9,2712.4,179.6,2703.9,185z"/>
	<path id="XMLID_391_" fill="#F9EEDE" d="M2130.2,30.2c16.2,17.7,27.1,38.1,32.5,61.5c7,30.8,5.6,62.4,5.2,93.9h14.8
		c0.3-22,1.1-44.1-0.8-65.9c-2-23.9-7-47.6-18.4-68.9c-10.5-19.7-26.3-35.7-42.5-50.8h-22.1C2109.6,9.8,2120.4,19.5,2130.2,30.2z"/>
	<path id="XMLID_395_" fill="#F9EEDE" d="M2096.3,77.1c12,22.2,17.6,47.2,20.2,72.1c1.3,12.1,2,24.3,2.5,36.4h15
		c-0.1-1.2-0.1-2.4-0.2-3.6c-1.2-25.2-3.2-50.7-9.9-75.2c-6.9-25.4-19.6-47.7-35.5-68.5c-9.8-12.9-19.8-25.5-29.8-38.2h-19.4
		c3.8,4.9,7.7,9.8,11.6,14.7C2066.8,34.8,2084,54.4,2096.3,77.1z"/>
	<path id="XMLID_398_" fill="#F9EEDE" d="M2059.2,137c3.8,16.2,3.9,32.4,3.5,48.6h15.4c0.2-4.7,0.3-9.5,0.3-14.2
		c-0.5-50.1-24.3-94.6-53.1-134.2c-9.2-12.6-18.8-24.9-28.5-37.2h-19c2.9,3.7,5.8,7.3,8.7,11C2016.4,48.9,2047.9,89,2059.2,137z"/>
	<path id="XMLID_403_" fill="#F9EEDE" d="M1594.9,35.8c22.5,20.6,47.8,37,73,53.9c25,16.7,49.8,35,66.3,60.7
		c7.2,11.2,12.7,23,17.2,35.2h15.7c-1-3.1-2.1-6.1-3.3-9.1c-10.7-28-27.5-52-50.2-71.5c-23-19.7-49.3-34.9-74-52.4
		c-21.6-15.3-41.3-33-58.9-52.6h-19.9C1571.3,12.7,1582.7,24.7,1594.9,35.8z"/>
	<path id="XMLID_404_" fill="#F9EEDE" d="M1992.9,124c2.8,20.4,1.3,41-1,61.5h14.9c0.1-1.1,0.2-2.1,0.3-3.2
		c3.4-32.5,3.7-65.6-9.2-96.2c-11.7-27.6-31.7-50.6-52-72.3c-4.3-4.6-8.5-9.2-12.8-13.8h-20.5c14,15.5,28.8,30.3,42.2,46.3
		C1973.8,68.9,1988.9,94.4,1992.9,124z"/>
	<path id="XMLID_409_" fill="#F9EEDE" d="M1902.9,90.8c17.9,16.3,34.9,35.1,38.9,59.9c1.9,11.7,0.9,23.3-1.4,34.9h14.9
		c3.7-21.6,2.9-43.3-7.5-63.7c-11.6-22.7-31.8-39.7-50.8-56.1c-20.4-17.6-39.1-36.1-54.1-58.6c-1.6-2.4-3.1-4.8-4.6-7.2h-17.5
		c7.7,13.2,16.4,25.9,26.2,37.7C1863.6,57.7,1883.8,73.4,1902.9,90.8z"/>
	<path id="XMLID_410_" fill="#F9EEDE" d="M1649,7c19.6,18.4,41.1,34.5,63.6,49.1c23.4,15.1,48,30.1,63.2,54.2
		c14.4,22.8,21,49.4,27.8,75.3h15.7c-4.3-16.9-8.9-33.8-14.9-50.2c-4.8-13.2-10.8-26.1-18.8-37.5c-8.1-11.5-18.1-21.3-29.2-30
		c-21.3-16.6-45.1-29.5-66.6-45.8c-9.1-6.9-17.9-14.3-26.4-22h-21.8C1644.1,2.4,1646.6,4.7,1649,7z"/>
	<path id="XMLID_414_" fill="#F9EEDE" d="M1880.4,131.8c-2.9-0.7-5.8-1.7-8.5-2.9c0,2.7-0.2,5.4-0.7,8.1
		C1874.2,135.3,1877.3,133.5,1880.4,131.8z"/>
	<path id="XMLID_415_" fill="#F9EEDE" d="M1786.4,70.4c14.7,14.9,28.9,30.2,43.5,45.1c13.1,13.4,27.8,26.1,46.5,30.6
		c3.7,0.9,8.4-1.2,9.2-5.2c5.6-29.1-12.1-53.8-30.9-74.1c-20.3-21.9-41.6-42.5-59.7-66.3c-0.1-0.2-0.3-0.4-0.4-0.5h-18.4
		c15.4,21.5,33,41.6,51.4,60.5c17.5,18,44.2,41,44.3,68.4c2.7,1.2,5.5,2.1,8.5,2.9c-3.1,1.7-6.2,3.5-9.2,5.2
		c0.5-2.7,0.8-5.4,0.7-8.1c-11.7-5-21.3-13.7-30.2-22.8c-12.6-12.9-24.8-26.2-37.5-39.1c-22.1-22.5-44.7-44.6-66.8-67.1h-21
		C1739.5,23.7,1763.1,46.9,1786.4,70.4z"/>
	<path id="XMLID_422_" fill="#F9EEDE" d="M1871.3,172.6c-6.6,2.2-10.7,7.1-13.3,12.9h40.6C1893.1,175.9,1883,168.7,1871.3,172.6z"/>
	<path id="XMLID_486_" fill="#F9EEDE" d="M1548.9,82.8c21.4,13.7,44.8,24.1,66.4,37.5c20.6,12.8,39.1,28.4,48.5,51.3
		c1.8,4.4,3.3,9.1,4.4,13.9h15.3c-1.2-6.5-3.1-12.8-5.6-18.8c-18.2-45.2-64.6-64.4-104.3-86.7c-36.2-20.3-63.8-48-84.7-80.1h-18.6
		c6.8,11.2,14.3,22.1,22.8,32.6C1509,52.2,1527.7,69.3,1548.9,82.8z"/>
	<path id="XMLID_493_" fill="#F9EEDE" d="M1511.9,129c8.8,7.2,17.9,14.1,27.3,20.4c10.1,6.8,23.2,12.4,30.1,22.9
		c2.8,4.2,4.2,8.7,4.6,13.2h14.9c-0.2-3.6-0.8-7.2-1.8-10.7c-6.7-21.8-30.2-31.1-47.3-43.3c-19.3-13.8-37-29.8-53.1-47.2
		c-23.3-25.2-43-53.7-58.6-84.3h-16.7c3.7,7.7,7.7,15.2,11.9,22.6C1446,62.9,1476,99.5,1511.9,129z"/>
	<path id="XMLID_498_" fill="#F9EEDE" d="M767.5,107.9c-6.2,25.4-10.1,51.6-8,77.7h14.9c-0.1-1.6-0.3-3.3-0.4-4.9
		c-3.5-62.1,26.4-120,38.5-179.6c0.1-0.3,0.1-0.7,0.2-1h-15.3c-1.2,5.9-2.6,11.7-4.1,17.6C785.6,47.9,775,77.4,767.5,107.9z"/>
	<path id="XMLID_499_" fill="#F9EEDE" d="M1439.4,121.6c9.1,9.4,18.9,18.3,29.1,26.5c6.5,5.2,27,16.3,24.1,26.8
		c-1.4,5-8.4,8.1-13,10.7h24.1c1.5-2,2.6-4.2,3.3-6.7c3.6-13.1-6.5-24.6-15.9-32.2c-10.2-8.2-20.7-15.9-30.3-24.9
		C1424,87.1,1397.3,45.3,1377.7,0h-16.3c8.4,20,18.2,39.5,29.6,58.4C1404.8,81,1420.9,102.5,1439.4,121.6z"/>
	<path id="XMLID_505_" fill="#F9EEDE" d="M843.8,115.4c-5.2,24.1-3.5,47.4,3.9,70.2h15.7c-4.9-13.2-8-26.9-8-41.1
		c0.1-29.9,13-57.9,22.4-85.7C884.2,39.6,889.5,20,893.6,0h-15.4c-2.3,11.3-5.1,22.5-8.3,33.5C862.1,61,849.8,87.3,843.8,115.4z"/>
	<path id="XMLID_506_" fill="#F9EEDE" d="M1360.1,145.3c8,6.3,17.3,10.3,25.4,16.3c8.5,6.3,5.1,16,0.5,23.9h16.9
		c3.7-8.7,4.7-17.8-0.1-26.7c-5.2-9.6-16-13.4-24.7-19c-7.9-5.1-15-11.2-21.3-18.2c-12.7-14-21.8-31.2-28.3-48.8
		c-8.7-23.5-13.6-48.1-17-72.9h-15.3c2.1,15,4.8,30,8.3,44.7C1313.3,82.2,1329.1,120.7,1360.1,145.3z"/>
	<path id="XMLID_510_" fill="#F9EEDE" d="M923.9,178.4c0.5,2.4,1.1,4.8,1.8,7.1h15.9c-3-8.6-4.9-17.6-5.5-26.9
		c-1.4-21.3,2.6-42.4,8-63c5.6-21.2,12.7-42,18.2-63.2c2.8-10.7,5.1-21.5,6.8-32.4h-15.5c-2.9,16.8-6.9,33.4-11.9,50
		C929.5,91.3,914.3,134.9,923.9,178.4z"/>
	<path id="XMLID_511_" fill="#F9EEDE" d="M1259.9,103.3c9.7,15.6,22,28.4,35.3,41c6.6,6.2,13.1,12.7,17.4,20.7
		c3.4,6.4,4.5,13.4,4.1,20.5h15c0.4-7-0.3-14-2.8-20.6c-3.3-8.9-8.7-16.4-15.2-23.3c-12.6-13.5-26.7-24.8-37.2-40.2
		c-20.1-29.6-29.5-65.1-32.9-100.4c0-0.4-0.1-0.7-0.1-1.1h-15.1c1.7,18.5,4.9,36.9,10.2,54.7C1243.6,71.7,1250.6,88.3,1259.9,103.3z
		"/>
	<path id="XMLID_515_" fill="#F9EEDE" d="M1173.2,23.6c1.8,25.1,8,50.1,21.3,71.6c12.7,20.5,32.9,34.4,46.1,54.3
		c6,9.1,9.8,19.5,7.3,30.5c-0.4,1.9-1,3.8-1.7,5.6h15.8c0.1-0.5,0.3-1.1,0.4-1.6c5.8-25.6-10.3-46.4-27-63.7
		c-8.4-8.7-17.2-17.1-24.2-27c-7.2-10.2-12.6-21.5-16.3-33.4c-6.1-19.5-8-39.6-7.5-59.8h-14.7C1172.5,7.8,1172.7,15.7,1173.2,23.6z"
		/>
	<path id="XMLID_516_" fill="#F9EEDE" d="M991.2,96.7c-9.7,27.6-18.6,57.1-5.8,85.2c0.6,1.2,1.1,2.4,1.8,3.6h17.7
		c-14.1-19.2-12.2-43.2-5.6-65.3c4.2-14.1,9.7-27.9,14-42c3.8-12.5,7-25.3,9.5-38.2c2.6-13.2,4.5-26.6,5.7-40.1h-14.9
		c-0.6,5.8-1.3,11.7-2.1,17.5C1007.4,44.6,1000.3,70.8,991.2,96.7z"/>
	<path id="XMLID_520_" fill="#F9EEDE" d="M1154.5,137.5c10.2,13.2,24.7,25.2,28.3,42.2c0.4,2,0.6,3.9,0.6,5.8h15
		c-0.2-7.4-2.1-14.9-5.2-21.6c-7.9-16.7-23-28.6-32.7-44c-9.3-14.7-14.8-31.3-17.8-48.4c-4.2-23.7-3.2-47.7-0.1-71.6h-14.7
		C1121.8,48.4,1123.4,97.4,1154.5,137.5z"/>
	<path id="XMLID_521_" fill="#F9EEDE" d="M1068.7,149.1c6.7,14.4,17.8,26.2,29.8,36.5h23.9c-0.3-0.2-0.5-0.4-0.8-0.6
		c-13.2-10-26.5-21-35.4-35.1c-20.1-32.2-7.6-71.7-1.8-106.2c2.4-14.5,4.1-29,5.2-43.6h-14.9c-0.9,11.9-2.2,23.7-4,35.5
		C1064.6,72.8,1051.8,112.7,1068.7,149.1z"/>
	<path id="XMLID_679_" fill="#F9EEDE" d="M78.4,195.4c36.2,4.5,71.2-2.5,106.3-9.8h-150C48.8,190.2,63.5,193.6,78.4,195.4z"/>
	<path id="XMLID_684_" fill="#F9EEDE" d="M375.7,176.9c-58-22.5-117.2-21.9-177.3-9.2c-33.4,7-66.9,15.4-101.3,14.2
		c-29.8-1-59.4-8.8-86.1-22.1c-3.7-1.9-7.4-3.8-11-5.9v17c11.1,5.8,22.7,10.7,34.7,14.7h150c28.6-6,57.2-12.2,86.4-12.6
		c28.5-0.4,57,3.9,84.2,12.6h40.2C389.1,182.4,382.5,179.5,375.7,176.9z"/>
	<path id="XMLID_710_" fill="#F9EEDE" d="M708.8,137.7c-1.3,15.8-1.8,31.9-1.2,47.9h14.6c-1.5-37.8,3.8-76.4,11.5-111.8
		c5.4-24.6,11.7-49.1,17.2-73.7h-15.3c-0.8,3.7-1.7,7.3-2.5,10.9C723.2,52.9,712.5,94.6,708.8,137.7z"/>
	<path id="XMLID_711_" fill="#F9EEDE" d="M133.2,135.5c23.3,3.6,46.6,2.4,69.9-1c46.4-6.7,91.4-20.7,138.7-17.3
		c43.3,3.1,85.6,18.2,121.2,43c11,7.7,21.2,16.2,30.9,25.3h21c-1.9-2-3.8-4-5.8-5.9c-28.7-28.7-63-50.8-101.4-64
		c-42.3-14.5-86.5-16.7-130.4-9.8c-45.7,7.2-91.7,22.1-138.4,15.5c-41.3-5.8-78.5-26.9-111.2-51.8C18.1,62.3,8.9,54.7,0,46.8v19.8
		c22.6,19.1,46.8,36.5,73.3,49.4C92.2,125.3,112.3,132.3,133.2,135.5z"/>
	<path id="XMLID_716_" fill="#F9EEDE" d="M657.6,136.7c-0.3,16.9,2,33,6.1,48.8h15.1c-0.6-1.9-1.1-3.8-1.6-5.8
		c-6.8-27.1-5.4-55.5-0.7-82.9c4.8-28.3,12.5-56,18.5-84c0.9-4.3,1.8-8.6,2.6-12.9h-15.2c-3.6,18.3-8.2,36.4-12.4,54.6
		C663.7,81.5,658.1,109,657.6,136.7z"/>
	<path id="XMLID_717_" fill="#F9EEDE" d="M190.1,84.8c24.7,3.2,49.5,2.8,74.2-0.3c29.2-3.7,58.1-10.1,87.6-11.3
		c41.7-1.7,82.7,7.3,119.1,27.8c37.6,21.3,68.4,51.5,96.2,84.6h19.2c-26.7-32.7-55.7-63.3-90.8-87c-32.9-22.2-70.5-36-110-39.6
		c-25.3-2.4-50.5-0.1-75.5,3.6c-27.4,4.1-54.7,9.4-82.5,9.6C158.8,72.6,93.3,45.3,43,0H21.5C66.9,45.2,125.4,76.3,190.1,84.8z"/>
	<path id="XMLID_721_" fill="#F9EEDE" d="M265.8,38.9c41.9-4,83.2-13.8,125.3-15.7c34.9-1.6,71.9,1.6,103.3,18.2
		c15.5,8.2,28.4,19.5,39.3,33.1c11.1,13.9,20,29.4,30.5,43.8c5,6.9,10.4,13.7,16.3,19.9c6.2,6.4,13.7,13.6,21.9,17.2
		c7.7,3.4,16.5,1.2,20.9-6.3c4-6.8,3.9-15.4,2.8-23c-1.6-10.4-3.6-20.7-4.4-31.2c-0.9-11-1.1-22.1-0.6-33.1
		c0.9-21,4.6-41.5,10.2-61.7h-15.5c-2.3,8.5-4.3,17.1-5.8,25.9c-3.6,21.2-4.9,42.8-3.6,64.3c0.7,10.7,2,21.5,3.8,32.1
		c0.6,3.6,1.5,7.1,1.6,10.8c0,2.2,0.3,6.9-1.4,8.6c-2.6,2.4-12.6-7.5-15-9.8c-6-5.6-11.5-12-16.4-18.6
		c-20.7-27.8-36.5-58.7-66.2-78.3C484.1,15.9,449.1,9,415.2,8c-80.5-2.5-161.8,33.3-241.5,9.9c-14.8-4.4-28.8-10.4-42-17.9h-28.2
		c12.8,8.9,26.4,16.7,40.8,23C183,39.9,224.2,42.9,265.8,38.9z"/>
	<path id="XMLID_723_" fill="#F9EEDE" d="M558.8,12.5c7.3-2.1,12.4-6.7,16.1-12.5h-59.1c0.5,0.3,0.9,0.5,1.4,0.8
		C529.2,8.1,544.1,16.8,558.8,12.5z"/>
</g>
<g id="XMLID_52_">
	<g id="XMLID_12_">
		<rect id="XMLID_26_" x="113" y="289.6" fill="#FFE100" width="160" height="1258.1"/>
		<rect id="XMLID_42_" x="113" y="398.4" fill="#F9A01B" width="160" height="54"/>
		<rect id="XMLID_47_" x="113" y="560.4" fill="#3CB4BB" width="160" height="54"/>
		<rect id="XMLID_49_" x="113" y="668.4" fill="#3CB4BB" width="160" height="54"/>
		<circle id="XMLID_43_" fill="#F9A01B" cx="193" cy="1417.1" r="33.8"/>
		<circle id="XMLID_46_" fill="#F9A01B" cx="193" cy="1289.4" r="33.8"/>
	</g>
	<rect id="XMLID_13_" x="193" y="289.6" opacity="0.15" fill="#8F3024" width="80" height="1261.5"/>
</g>
<g id="XMLID_53_">
	<rect id="XMLID_19_" x="393.6" y="565.6" fill="#F9A01B" width="283.4" height="982.1"/>
	<rect id="XMLID_28_" x="450.8" y="1184.5" fill="#EB5746" width="168.9" height="300.2"/>
	<rect id="XMLID_32_" x="450.8" y="650.4" fill="#8F3024" width="168.9" height="54"/>
	<rect id="XMLID_34_" x="450.8" y="758.4" fill="#8F3024" width="168.9" height="54"/>
	<rect id="XMLID_15_" x="534.8" y="565.6" opacity="0.15" fill="#8F3024" width="142.2" height="985.5"/>
</g>
<g id="XMLID_54_">
	<rect id="XMLID_21_" x="781.9" y="289.6" fill="#007BC1" width="247.1" height="1258.1"/>
	<rect id="XMLID_29_" x="849.1" y="385.6" fill="#81CBEB" width="112.6" height="936.9"/>
	<rect id="XMLID_35_" x="849.1" y="385.6" fill="#FFFFFF" width="112.6" height="264.8"/>
	<rect id="XMLID_33_" x="849.1" y="1417.1" fill="#FFFFFF" width="112.6" height="67.6"/>
	<rect id="XMLID_16_" x="905.5" y="289.6" opacity="0.15" fill="#003462" width="123.5" height="1261.5"/>
</g>
<g id="XMLID_55_">
	<rect id="XMLID_22_" x="1169.4" y="425.9" fill="#8560A8" width="323.9" height="1121.8"/>
	<rect id="XMLID_36_" x="1169.4" y="581.3" fill="#70346E" width="323.9" height="246.3"/>
	<rect id="XMLID_38_" x="1169.4" y="1199.2" fill="#FFE100" width="323.9" height="90.2"/>
	<rect id="XMLID_40_" x="1169.4" y="1379.7" fill="#FFE100" width="323.9" height="90.2"/>
	<circle id="XMLID_37_" fill="#FFFFFF" cx="1331.4" cy="986.8" r="68.6"/>
	<rect id="XMLID_14_" x="1331.8" y="425.9" opacity="0.15" fill="#003462" width="161.5" height="1121.8"/>
</g>
<g id="XMLID_56_">
	<rect id="XMLID_23_" x="1595.3" y="289.6" fill="#3CB4BB" width="209.7" height="1258.1"/>
	<rect id="XMLID_48_" x="1649.5" y="1289.4" fill="#EB5746" width="101.4" height="180.5"/>
	<rect id="XMLID_50_" x="1595.3" y="427.7" fill="#EB5746" width="209.7" height="51.6"/>
	<rect id="XMLID_51_" x="1595.3" y="581.3" fill="#FFE100" width="209.7" height="51.6"/>
	<rect id="XMLID_17_" x="1700.2" y="289.6" opacity="0.15" fill="#003462" width="104.8" height="1258.1"/>
</g>
<g id="XMLID_57_">
	<rect id="XMLID_25_" x="1851.2" y="565.6" fill="#EB5746" width="137.8" height="982.1"/>
	<rect id="XMLID_4_" x="1888.3" y="720.2" fill="#FFE100" width="63.6" height="672.8"/>
	<rect id="XMLID_18_" x="1920.1" y="565.6" opacity="0.15" fill="#8F3024" width="68.9" height="982.1"/>
</g>
<g id="XMLID_58_">
	<rect id="XMLID_24_" x="2021.2" y="425.9" fill="#40B1E5" width="391.8" height="1121.8"/>
	<rect id="XMLID_41_" x="2021.2" y="495.7" fill="#007BC1" width="391.8" height="69.8"/>
	<rect id="XMLID_44_" x="2021.2" y="1408" fill="#007BC1" width="391.8" height="69.8"/>
	<ellipse id="XMLID_39_" fill="#81CBEB" cx="2217.1" cy="986.8" rx="90" ry="331.9"/>
	<rect id="XMLID_30_" x="2217.1" y="425.9" opacity="0.15" fill="#003462" width="195.9" height="1121.8"/>
</g>
<g id="XMLID_59_">
	<rect id="XMLID_27_" x="2469.9" y="289.6" fill="#F9A01B" width="247.1" height="1258.1"/>
	<rect id="XMLID_3_" x="2469.9" y="996" fill="#FFE100" width="247.1" height="293.4"/>
	<rect id="XMLID_5_" x="2469.9" y="1408" fill="#EB5746" width="247.1" height="69.8"/>
	<rect id="XMLID_7_" x="2469.9" y="650.4" fill="#EB5746" width="247.1" height="69.8"/>
	<rect id="XMLID_9_" x="2469.9" y="512.1" fill="#FFE100" width="247.1" height="69.8"/>
	<rect id="XMLID_45_" x="2593.5" y="289.6" opacity="0.15" fill="#8F3024" width="123.5" height="1258.1"/>
</g>
</svg>
