<?xml version="1.0" encoding="utf-8"?>
<!-- Generator: Adobe Illustrator 21.0.0, SVG Export Plug-In . SVG Version: 6.00 Build 0)  -->
<svg version="1.1" id="Layer_1" xmlns="http://www.w3.org/2000/svg" xmlns:xlink="http://www.w3.org/1999/xlink" x="0px" y="0px"
	 width="1400px" height="980px" viewBox="0 0 1400 980" enable-background="new 0 0 1400 980" xml:space="preserve">
<g>
	<g>
		<path fill="#34495E" d="M389.9,320.1c-62.7,0-113.7-51-113.7-113.7s51-113.7,113.7-113.7s113.7,51,113.7,113.7
			S452.6,320.1,389.9,320.1z"/>
		<path fill="#2A3B4D" d="M503.6,206.4c0-62.7-51-113.7-113.7-113.7v227.5C452.6,320.1,503.6,269.1,503.6,206.4z"/>
		<circle fill="#9EC8F0" cx="389.9" cy="206.4" r="96.4"/>
		<path fill="#B3D5F5" d="M293.5,206.4c0,53.2,43.1,96.4,96.4,96.4V110C336.7,110,293.5,153.1,293.5,206.4z"/>
		<g>
			<path fill="#34495E" d="M389.9,149c-1,0-1.7-0.8-1.7-1.7v-19.6c0-1,0.8-1.7,1.7-1.7c1,0,1.7,0.8,1.7,1.7v19.6
				C391.6,148.2,390.9,149,389.9,149z"/>
			<path fill="#34495E" d="M360.3,156.9c-0.6,0-1.2-0.3-1.5-0.9l-9.8-16.9c-0.5-0.8-0.2-1.9,0.6-2.4c0.8-0.5,1.9-0.2,2.4,0.6
				l9.8,16.9c0.5,0.8,0.2,1.9-0.6,2.4C360.9,156.8,360.6,156.9,360.3,156.9z"/>
			<path fill="#34495E" d="M338.6,178.6c-0.3,0-0.6-0.1-0.9-0.2l-16.9-9.8c-0.8-0.5-1.1-1.5-0.6-2.4c0.5-0.8,1.5-1.1,2.4-0.6
				l16.9,9.8c0.8,0.5,1.1,1.5,0.6,2.4C339.8,178.3,339.2,178.6,338.6,178.6z"/>
			<path fill="#34495E" d="M458.1,247.6c-0.3,0-0.6-0.1-0.9-0.2l-16.9-9.8c-0.8-0.5-1.1-1.5-0.6-2.4c0.5-0.8,1.5-1.1,2.4-0.6
				l16.9,9.8c0.8,0.5,1.1,1.5,0.6,2.4C459.3,247.3,458.7,247.6,458.1,247.6z"/>
			<path fill="#34495E" d="M330.7,208.2h-19.6c-1,0-1.7-0.8-1.7-1.7s0.8-1.7,1.7-1.7h19.6c1,0,1.7,0.8,1.7,1.7
				S331.6,208.2,330.7,208.2z"/>
			<path fill="#34495E" d="M468.7,208.2h-19.6c-1,0-1.7-0.8-1.7-1.7s0.8-1.7,1.7-1.7h19.6c1,0,1.7,0.8,1.7,1.7
				S469.7,208.2,468.7,208.2z"/>
			<path fill="#34495E" d="M321.7,247.6c-0.6,0-1.2-0.3-1.5-0.9c-0.5-0.8-0.2-1.9,0.6-2.4l16.9-9.8c0.8-0.5,1.9-0.2,2.4,0.6
				c0.5,0.8,0.2,1.9-0.6,2.4l-16.9,9.8C322.3,247.5,322,247.6,321.7,247.6z"/>
			<path fill="#34495E" d="M441.2,178.6c-0.6,0-1.2-0.3-1.5-0.9c-0.5-0.8-0.2-1.9,0.6-2.4l16.9-9.8c0.8-0.5,1.9-0.2,2.4,0.6
				c0.5,0.8,0.2,1.9-0.6,2.4l-16.9,9.8C441.8,178.5,441.5,178.6,441.2,178.6z"/>
			<path fill="#34495E" d="M419.5,156.9c-0.3,0-0.6-0.1-0.9-0.2c-0.8-0.5-1.1-1.5-0.6-2.4l9.8-16.9c0.5-0.8,1.5-1.1,2.4-0.6
				c0.8,0.5,1.1,1.5,0.6,2.4L421,156C420.7,156.6,420.1,156.9,419.5,156.9z"/>
			<path fill="#34495E" d="M389.9,288.5c-44.8,0-81.3-36.5-81.3-81.3s36.5-81.3,81.3-81.3c44.8,0,81.3,36.5,81.3,81.3
				S434.7,288.5,389.9,288.5z M389.9,129.4c-42.9,0-77.8,34.9-77.8,77.8S347,285,389.9,285c42.9,0,77.8-34.9,77.8-77.8
				S432.8,129.4,389.9,129.4z"/>
		</g>
		<g>
			<polygon fill="#DF4949" points="389.9,224.4 389.9,160.3 381,224.4 			"/>
			<polygon fill="#BF3F3F" points="389.9,224.4 389.9,160.3 398.8,224.4 			"/>
			<circle fill="#34495E" cx="389.9" cy="224.4" r="8.9"/>
		</g>
		<g>
			<rect x="364.6" y="244" fill="#FFFFFF" width="11.7" height="11.7"/>
			<rect x="377.6" y="244" fill="#FFFFFF" width="11.7" height="11.7"/>
			<rect x="390.6" y="244" fill="#FFFFFF" width="11.7" height="11.7"/>
			<rect x="403.6" y="244" fill="#FFFFFF" width="11.7" height="11.7"/>
		</g>
	</g>
	<g>
		<path fill="#912424" d="M1124.5,190.1h-9.2v-36c0-6-4.9-10.8-10.8-10.8h-52.5v-9.2h52.5c11.1,0,20,9,20,20V190.1z"/>
		<rect x="1004.6" y="119.6" fill="#A82F2F" width="34.3" height="23.4"/>
		<g>
			<path fill="#BF3F3F" d="M1113.1,316h-110.3c-6.8,0-12.4-5.5-12.4-12.4V146.1c0-6.8,5.5-12.4,12.4-12.4h52.4
				c1.8,0,3.6,0.4,5.2,1.2l60.1,43.3c3.1,2.2,4.9,5.8,4.9,9.6v115.9C1125.5,310.4,1119.9,316,1113.1,316z"/>
			<path fill="#B33A3A" d="M1125.5,303.6V187.7c0-3.8-1.8-7.4-4.9-9.6l-60.1-43.3c-1.6-0.8-3.4-1.2-5.2-1.2h-52.4
				c-3.7,0-7,1.6-9.3,4.2l129.3,173.4C1124.5,309.1,1125.5,306.5,1125.5,303.6z"/>
		</g>
		<path fill="#FFDA80" d="M1089.6,241.6c0,17.5-14.2,31.6-31.6,31.6s-31.6-14.2-31.6-31.6c0-12.5,16.1-41.1,25.3-56.4
			c2.8-4.7,9.7-4.7,12.6,0C1073.4,200.5,1089.6,229.1,1089.6,241.6z"/>
		<path fill="#912424" d="M1036.8,123h-30.2c-2.8,0-5.2-2.3-5.2-5.2v-0.6c0-2.8,2.3-5.2,5.2-5.2h30.2c2.8,0,5.2,2.3,5.2,5.2v0.6
			C1042,120.7,1039.7,123,1036.8,123z"/>
		<path fill="#E3BB59" d="M1064.2,185.2c-2.8-4.7-9.7-4.7-12.6,0c-1.1,1.8-2.2,3.7-3.4,5.8c8.2,14.9,16.8,32.5,16.8,41.6
			c0,16.7-12.9,30.3-29.3,31.5c5.7,5.6,13.5,9.1,22.2,9.1c17.5,0,31.6-14.2,31.6-31.6C1089.6,229.1,1073.4,200.5,1064.2,185.2z"/>
	</g>
	<g>
		<g>
			<rect x="841" y="213" fill="#2A3B4D" width="39.1" height="22.8"/>
			<rect x="594.6" y="178.6" fill="#A3B1B8" width="39.1" height="39.1"/>
			<path fill="#ADBCC3" d="M835.6,255.7H647.3c-7.6,0-13.7-6.1-13.7-13.7v-91.8c0-7.6,6.1-13.7,13.7-13.7h188.3
				c7.6,0,13.7,6.1,13.7,13.7V242C849.3,249.5,843.2,255.7,835.6,255.7z"/>
			<path fill="#A3B1B8" d="M838.7,136.5H644.3c-5.9,0-10.7,4.8-10.7,10.7v48.9h215.7v-48.9C849.3,141.3,844.5,136.5,838.7,136.5z"/>
			<path fill="#2A3B4D" d="M590.7,224.4h-4.9c-2.2,0-3.9-1.7-3.9-3.9v-44.6c0-2.2,1.7-3.9,3.9-3.9h4.9c2.2,0,3.9,1.7,3.9,3.9v44.6
				C594.6,222.7,592.8,224.4,590.7,224.4z"/>
		</g>
		<path fill="#ADBCC3" d="M803.9,165.3H703.7c-4.5,0-8.2-3.7-8.2-8.2v0c0-4.5,3.7-8.2,8.2-8.2h100.2c4.5,0,8.2,3.7,8.2,8.2v0
			C812.1,161.7,808.4,165.3,803.9,165.3z"/>
	</g>
	<g>
		<g>
			<g>
				<rect x="301.5" y="416.1" fill="#2A3B4D" width="48.2" height="18.8"/>
				<rect x="316.1" y="402.9" fill="#BF3F3F" width="18.8" height="13.3"/>
			</g>
			<g>
				<rect x="430.2" y="416.1" fill="#2A3B4D" width="48.2" height="18.8"/>
				<rect x="444.9" y="402.9" fill="#BF3F3F" width="18.8" height="13.3"/>
			</g>
		</g>
		<rect x="292.4" y="443.4" fill="#F2C185" width="195" height="156"/>
		<path fill="#E3AB66" d="M494.4,443.4H285.4c-4.7,0-8.5-3.8-8.5-8.5l0,0c0-4.7,3.8-8.5,8.5-8.5h208.9c4.7,0,8.5,3.8,8.5,8.5l0,0
			C502.8,439.6,499,443.4,494.4,443.4z"/>
		<rect x="389.9" y="443.4" fill="#EBB471" width="97.5" height="156"/>
		<polygon fill="#BF3F3F" points="414,462.8 361.7,540.1 385.8,521.1 354.2,586.8 418.1,499.9 394,511.2 		"/>
	</g>
	<g>
		<circle fill="#2A3B4D" cx="731" cy="503.7" r="117.9"/>
		<circle fill="#FFFFFF" cx="731" cy="503.7" r="95.7"/>
		<g>
			<circle fill="#2A3B4D" cx="731" cy="528.1" r="3.8"/>
			<circle fill="#2A3B4D" cx="731" cy="503.7" r="13.2"/>
			<circle fill="#2A3B4D" cx="706.7" cy="503.7" r="3.8"/>
			<path fill="#2A3B4D" d="M716.3,468.9c0,0,0,0.1,0,0.1c3.1-1.3,6.5-2.2,10-2.7c0,0,0-0.1,0-0.1v-42.5c0-2.8-2.5-5-5.3-4.7
				c-8.4,1-16.3,3.2-23.8,6.4c-2.6,1.1-3.6,4.2-2.2,6.7L716.3,468.9z"/>
			<path fill="#2A3B4D" d="M745.7,469c0,0,0-0.1,0-0.1l21.2-36.8c1.4-2.4,0.4-5.6-2.2-6.7c-7.4-3.2-15.4-5.4-23.8-6.4
				c-2.8-0.3-5.3,1.9-5.3,4.7v42.5c0,0,0,0.1,0,0.1C739.2,466.7,742.5,467.6,745.7,469z"/>
			<circle fill="#2A3B4D" cx="731" cy="479.4" r="3.8"/>
			<path fill="#2A3B4D" d="M765.8,489.1c1.3,3.1,2.2,6.5,2.7,10c0,0,0.1,0,0.1,0H811c2.8,0,5-2.5,4.7-5.3c-1-8.4-3.2-16.3-6.4-23.8
				c-1.1-2.6-4.2-3.6-6.7-2.2L765.9,489C765.8,489,765.8,489.1,765.8,489.1z"/>
			
				<ellipse transform="matrix(0.7071 -0.7071 0.7071 0.7071 -124.8918 671.5625)" fill="#2A3B4D" cx="748.2" cy="486.5" rx="3.8" ry="3.8"/>
			<circle fill="#2A3B4D" cx="755.3" cy="503.7" r="3.8"/>
			
				<ellipse transform="matrix(0.7071 -0.7071 0.7071 0.7071 -149.2222 681.6406)" fill="#2A3B4D" cx="748.2" cy="520.9" rx="3.8" ry="3.8"/>
			<path fill="#2A3B4D" d="M753.8,473.7c2.8,2.1,5.2,4.5,7.3,7.3c0,0,0.1-0.1,0.1-0.1l36.8-21.2c2.4-1.4,3.1-4.6,1.4-6.9
				c-4.9-6.6-10.8-12.5-17.4-17.4c-2.3-1.7-5.5-1-6.9,1.4l-21.2,36.8C753.8,473.6,753.8,473.6,753.8,473.7z"/>
			<path fill="#2A3B4D" d="M716.3,538.5c0,0,0,0.1,0,0.1L695,575.4c-1.4,2.4-0.4,5.6,2.2,6.7c7.4,3.2,15.4,5.4,23.8,6.4
				c2.8,0.3,5.3-1.9,5.3-4.7v-42.5c0,0,0-0.1,0-0.1C722.8,540.7,719.5,539.8,716.3,538.5z"/>
			<path fill="#2A3B4D" d="M745.7,538.6c0,0,0-0.1,0-0.1c-3.1,1.3-6.5,2.2-10,2.7c0,0,0,0.1,0,0.1v42.5c0,2.8,2.5,5,5.3,4.7
				c8.4-1,16.3-3.2,23.8-6.4c2.6-1.1,3.6-4.2,2.2-6.7L745.7,538.6z"/>
			<path fill="#2A3B4D" d="M797.9,547.8l-36.8-21.2c0,0-0.1-0.1-0.1-0.1c-2.1,2.8-4.5,5.2-7.3,7.3c0,0,0.1,0.1,0.1,0.1l21.2,36.8
				c1.4,2.4,4.6,3.1,6.9,1.4c6.6-4.9,12.5-10.8,17.4-17.4C801,552.5,800.4,549.2,797.9,547.8z"/>
			<path fill="#2A3B4D" d="M708.2,533.8c-2.8-2.1-5.2-4.5-7.3-7.3c0,0-0.1,0.1-0.1,0.1L664,547.8c-2.4,1.4-3.1,4.6-1.4,6.9
				c4.9,6.6,10.8,12.5,17.4,17.4c2.3,1.7,5.5,1,6.9-1.4l21.2-36.8C708.2,533.9,708.2,533.9,708.2,533.8z"/>
			<path fill="#2A3B4D" d="M811,508.4h-42.5c0,0-0.1,0-0.1,0c-0.4,3.5-1.3,6.8-2.7,10c0,0,0.1,0,0.1,0l36.8,21.2
				c2.4,1.4,5.6,0.4,6.7-2.2c3.2-7.4,5.4-15.4,6.4-23.8C816,510.9,813.8,508.4,811,508.4z"/>
			<path fill="#2A3B4D" d="M664,459.7l36.8,21.2c0,0,0.1,0.1,0.1,0.1c2.1-2.8,4.5-5.2,7.3-7.3c0,0-0.1-0.1-0.1-0.1l-21.2-36.8
				c-1.4-2.4-4.6-3.1-6.9-1.4c-6.6,4.9-12.5,10.8-17.4,17.4C660.9,455,661.6,458.3,664,459.7z"/>
			
				<ellipse transform="matrix(0.7071 -0.7071 0.7071 0.7071 -134.9698 647.2321)" fill="#2A3B4D" cx="713.8" cy="486.5" rx="3.8" ry="3.8"/>
			
				<ellipse transform="matrix(0.7071 -0.7071 0.7071 0.7071 -159.3003 657.3101)" fill="#2A3B4D" cx="713.8" cy="520.9" rx="3.8" ry="3.8"/>
			<path fill="#2A3B4D" d="M696.2,518.4c-1.3-3.1-2.2-6.5-2.7-10c0,0-0.1,0-0.1,0H651c-2.8,0-5,2.5-4.7,5.3c1,8.4,3.2,16.3,6.4,23.8
				c1.1,2.6,4.2,3.6,6.7,2.2l36.8-21.2C696.1,518.4,696.2,518.4,696.2,518.4z"/>
			<path fill="#2A3B4D" d="M651,499h42.5c0,0,0.1,0,0.1,0c0.4-3.5,1.3-6.8,2.7-10c0,0-0.1,0-0.1,0l-36.8-21.2
				c-2.4-1.4-5.6-0.4-6.7,2.2c-3.2,7.4-5.4,15.4-6.4,23.8C646,496.6,648.1,499,651,499z"/>
		</g>
	</g>
	<g>
		<polygon fill="#2A3B4D" points="1049.7,509 1049.7,557.1 1064.8,557.1 1064.8,509 1121.1,509 1121.1,557.1 1136.2,557.1 
			1136.2,445.8 1121.1,445.8 1121.1,493.9 1064.8,493.9 1064.8,445.8 1049.7,445.8 1049.7,493.9 993.4,493.9 993.4,445.8 
			978.3,445.8 978.3,557.1 993.4,557.1 993.4,509 		"/>
		<polygon fill="#2A3B4D" points="984.4,417.9 984.5,417.9 984.5,434.7 989.3,434.7 989.3,413.5 985.2,413.5 979.5,416.1 
			980.4,419.8 		"/>
		<path fill="#2A3B4D" d="M985.2,590.2l2-1.6c3.1-2.7,5.7-5.6,5.7-9.2c0-3.9-2.6-6.7-7.5-6.7c-2.9,0-5.4,1-7,2.2l1.4,3.6
			c1.1-0.8,2.7-1.8,4.5-1.8c2.5,0,3.5,1.4,3.5,3.1c-0.1,2.5-2.3,4.9-7,9l-2.7,2.5v3h15.1v-4.1L985.2,590.2L985.2,590.2z"/>
		<path fill="#2A3B4D" d="M1055.4,431.2c-2,0-4.1-0.8-4.9-1.3l-1,3.7c1.2,0.8,3.6,1.5,6.3,1.5c5.4,0,8.7-2.7,8.7-6.5
			c0-2.8-2.1-4.7-4.6-5.2v-0.1c2.6-0.9,3.9-2.7,3.9-4.9c0-2.9-2.5-5.3-7.1-5.3c-2.7,0-5.3,0.8-6.6,1.6l1,3.6
			c0.9-0.5,2.7-1.3,4.4-1.3c2.1,0,3.1,0.9,3.1,2.2c0,1.8-2.1,2.4-3.8,2.5h-1.9v3.6h2c2.2,0,4.3,0.9,4.3,3
			C1059.2,429.9,1057.9,431.2,1055.4,431.2z"/>
		<path fill="#2A3B4D" d="M1063,573.1h-6.1l-8,12.9v3.2h9.4v5.1h4.7v-5.1h2.5v-3.7h-2.5V573.1z M1058.3,580.9v4.7h-4.8v-0.1l2.8-4.6
			c0.7-1.3,1.3-2.6,2-4h0.1C1058.4,578.3,1058.3,579.6,1058.3,580.9z"/>
		<path fill="#2A3B4D" d="M1136,427.6c0-2.5-1-4.2-2.6-5.3c-1.5-1.1-3.6-1.5-5.6-1.5c-0.5,0-0.9,0-1.4,0.1l0.5-3.3h8.2v-4.1h-11.7
			l-1.4,11.1c0.9-0.1,1.7-0.2,2.9-0.2c4.2,0,6,1.3,6,3.5c0,2.3-2.2,3.2-4.2,3.2c-1.9,0-3.9-0.6-4.8-1l-0.9,3.7
			c1.2,0.6,3.3,1.2,5.9,1.2C1132.6,435.1,1136,431.6,1136,427.6z"/>
		<path fill="#2A3B4D" d="M1135.9,588.2c-0.6-2-1.4-3.5-2.9-4.1v-0.1c1.9-0.7,3.9-2.6,3.9-5.4c0-2-0.7-3.6-2-4.6
			c-1.6-1.2-3.9-1.7-7.1-1.7c-2.6,0-5,0.2-6.6,0.5v21.7h4.9v-8.7h1.5c2,0,3,0.8,3.6,3.5c0.7,2.7,1.2,4.5,1.5,5.1h5.1
			C1137.3,593.5,1136.6,590.6,1135.9,588.2z M1128,582.1h-2V576c0.4-0.1,1-0.2,2.3-0.2c2.3,0,3.7,1,3.7,3.1
			C1132,580.9,1130.5,582.1,1128,582.1z"/>
	</g>
	<g>
		<g>
			<path fill="#BF3F3F" d="M354,722.6c-29.5,0-53.5,24-53.5,53.5c0,29.5,24,53.5,53.5,53.5s53.5-24,53.5-53.5
				C407.5,746.6,383.5,722.6,354,722.6z M354,804.1c-15.5,0-28-12.5-28-28s12.5-28,28-28c15.5,0,28,12.5,28,28
				S369.5,804.1,354,804.1z"/>
			<path fill="#BF3F3F" d="M440.5,760.9H422c-0.8-2.9-0.7-2.6-1.5-5.6l16.1-9.3c2.5-1.4,3.4-4.6,1.9-7.2l-10-17.3
				c-1.4-2.5-4.6-3.4-7.2-1.9l-16.1,9.3c-2.2-2.2-1.9-1.9-4.1-4.1l9.3-16.1c1.4-2.5,0.6-5.7-1.9-7.2l-17.3-10
				c-2.5-1.4-5.7-0.6-7.2,1.9l-9.3,16.1c-2.9-0.8-2.6-0.7-5.6-1.5v-18.6c0-2.9-2.3-5.2-5.2-5.2h-20c-2.9,0-5.2,2.3-5.2,5.2v18.6
				c-2.9,0.8-2.6,0.7-5.6,1.5l-9.3-16.1c-1.4-2.5-4.6-3.4-7.2-1.9l-17.3,10c-2.5,1.4-3.4,4.6-1.9,7.2l9.3,16.1
				c-2.2,2.2-1.9,1.9-4.1,4.1l-16.1-9.3c-2.5-1.4-5.7-0.6-7.2,1.9l-10,17.3c-1.4,2.5-0.6,5.7,1.9,7.2l16.1,9.3
				c-0.8,2.9-0.7,2.6-1.5,5.6h-18.6c-2.9,0-5.2,2.3-5.2,5.2v20c0,2.9,2.3,5.2,5.2,5.2h18.6c0.8,2.9,0.7,2.6,1.5,5.6l-16.1,9.3
				c-2.5,1.4-3.4,4.6-1.9,7.2l10,17.3c1.4,2.5,4.6,3.4,7.2,1.9l16.1-9.3c2.2,2.2,1.9,1.9,4.1,4.1l-9.3,16.1
				c-1.4,2.5-0.6,5.7,1.9,7.2l17.3,10c2.5,1.4,5.7,0.6,7.2-1.9l9.3-16.1c2.9,0.8,2.6,0.7,5.6,1.5v18.6c0,2.9,2.3,5.2,5.2,5.2h20
				c2.9,0,5.2-2.3,5.2-5.2V844c2.9-0.8,2.6-0.7,5.6-1.5l9.3,16.1c1.4,2.5,4.6,3.4,7.2,1.9l17.3-10c2.5-1.4,3.4-4.6,1.9-7.2
				l-9.3-16.1c2.2-2.2,1.9-1.9,4.1-4.1l16.1,9.3c2.5,1.4,5.7,0.6,7.2-1.9l10-17.3c1.4-2.5,0.6-5.7-1.9-7.2l-16.1-9.3
				c0.8-2.9,0.7-2.6,1.5-5.6h18.6c2.9,0,5.2-2.3,5.2-5.2v-20C445.8,763.2,443.4,760.9,440.5,760.9z M354,836.2
				c-33.2,0-60.2-27-60.2-60.2c0-33.2,27-60.2,60.2-60.2s60.2,27,60.2,60.2C414.2,809.3,387.2,836.2,354,836.2z"/>
		</g>
		<g>
			<path fill="#BF3F3F" d="M471.7,814.8c-14.7,0-26.7,12-26.7,26.7c0,14.7,12,26.7,26.7,26.7s26.7-12,26.7-26.7
				C498.4,826.8,486.4,814.8,471.7,814.8z M471.7,855.5c-7.7,0-14-6.3-14-14c0-7.7,6.3-14,14-14c7.7,0,14,6.3,14,14
				C485.7,849.2,479.4,855.5,471.7,855.5z"/>
			<path fill="#BF3F3F" d="M514.9,833.9h-9.3c-0.4-1.5-0.4-1.3-0.7-2.8l8-4.6c1.3-0.7,1.7-2.3,1-3.6l-5-8.7c-0.7-1.3-2.3-1.7-3.6-1
				l-8,4.6c-1.1-1.1-1-1-2-2l4.6-8c0.7-1.3,0.3-2.9-1-3.6l-8.7-5c-1.3-0.7-2.9-0.3-3.6,1l-4.6,8c-1.5-0.4-1.3-0.4-2.8-0.7v-9.3
				c0-1.4-1.2-2.6-2.6-2.6h-10c-1.4,0-2.6,1.2-2.6,2.6v9.3c-1.5,0.4-1.3,0.4-2.8,0.7l-4.6-8c-0.7-1.3-2.3-1.7-3.6-1l-8.7,5
				c-1.3,0.7-1.7,2.3-1,3.6l4.6,8c-1.1,1.1-1,1-2,2l-8-4.6c-1.3-0.7-2.9-0.3-3.6,1l-5,8.7c-0.7,1.3-0.3,2.9,1,3.6l8,4.6
				c-0.4,1.5-0.4,1.3-0.7,2.8h-9.3c-1.4,0-2.6,1.2-2.6,2.6v10c0,1.4,1.2,2.6,2.6,2.6h9.3c0.4,1.5,0.4,1.3,0.7,2.8l-8,4.6
				c-1.3,0.7-1.7,2.3-1,3.6l5,8.7c0.7,1.3,2.3,1.7,3.6,1l8-4.6c1.1,1.1,1,1,2,2l-4.6,8c-0.7,1.3-0.3,2.9,1,3.6l8.7,5
				c1.3,0.7,2.9,0.3,3.6-1l4.6-8c1.5,0.4,1.3,0.4,2.8,0.7v9.3c0,1.4,1.2,2.6,2.6,2.6h10c1.4,0,2.6-1.2,2.6-2.6v-9.3
				c1.5-0.4,1.3-0.4,2.8-0.7l4.6,8c0.7,1.3,2.3,1.7,3.6,1l8.7-5c1.3-0.7,1.7-2.3,1-3.6l-4.6-8c1.1-1.1,1-1,2-2l8,4.6
				c1.3,0.7,2.9,0.3,3.6-1l5-8.7c0.7-1.3,0.3-2.9-1-3.6l-8-4.6c0.4-1.5,0.4-1.3,0.7-2.8h9.3c1.4,0,2.6-1.2,2.6-2.6v-10
				C517.6,835.1,516.4,833.9,514.9,833.9z M471.7,871.6c-16.6,0-30.1-13.5-30.1-30.1s13.5-30.1,30.1-30.1s30.1,13.5,30.1,30.1
				S488.3,871.6,471.7,871.6z"/>
		</g>
	</g>
	<g>
		<path fill="#5C4B51" d="M847.6,707.3H614.4c-13.8,0-24.9,11.2-24.9,24.9v107.3c0,13.8,11.2,24.9,24.9,24.9h233.1
			c13.8,0,24.9-11.2,24.9-24.9V732.2C872.5,718.4,861.3,707.3,847.6,707.3z M674.2,728.4c0-2.9,2.4-5.3,5.3-5.3h4.9
			c2.9,0,5.3,2.4,5.3,5.3v4.9c-6.1,4.8-11.3,10.6-15.4,17.2V728.4z M624.3,843.3c0,2.9-2.4,5.3-5.3,5.3h-4.9c-2.9,0-5.3-2.4-5.3-5.3
			V728.4c0-2.9,2.4-5.3,5.3-5.3h4.9c2.9,0,5.3,2.4,5.3,5.3V843.3z M657,843.3c0,2.9-2.4,5.3-5.3,5.3h-4.9c-2.9,0-5.3-2.4-5.3-5.3
			V728.4c0-2.9,2.4-5.3,5.3-5.3h4.9c2.9,0,5.3,2.4,5.3,5.3V843.3z M689.7,843.3c0,2.9-2.4,5.3-5.3,5.3h-4.9c-2.9,0-5.3-2.4-5.3-5.3
			v-22.1c4.1,6.6,9.3,12.4,15.4,17.2V843.3z M731,840.3c-30.1,0-54.5-24.4-54.5-54.5c0-30.1,24.4-54.5,54.5-54.5
			s54.5,24.4,54.5,54.5C785.4,815.9,761.1,840.3,731,840.3z M787.7,843.3c0,2.9-2.4,5.3-5.3,5.3h-4.9c-2.9,0-5.3-2.4-5.3-5.3v-4.9
			c6.1-4.8,11.3-10.6,15.4-17.2V843.3z M787.7,750.5c-4.1-6.6-9.3-12.4-15.4-17.2v-4.9c0-2.9,2.4-5.3,5.3-5.3h4.9
			c2.9,0,5.3,2.4,5.3,5.3V750.5z M820.4,843.3c0,2.9-2.4,5.3-5.3,5.3h-4.9c-2.9,0-5.3-2.4-5.3-5.3V728.4c0-2.9,2.4-5.3,5.3-5.3h4.9
			c2.9,0,5.3,2.4,5.3,5.3V843.3z M853.1,843.3c0,2.9-2.4,5.3-5.3,5.3H843c-2.9,0-5.3-2.4-5.3-5.3V728.4c0-2.9,2.4-5.3,5.3-5.3h4.9
			c2.9,0,5.3,2.4,5.3,5.3V843.3z"/>
		<path fill="#5C4B51" d="M779.4,768.9c-1-2.8-4.1-4.3-6.9-3.3l-21.1,6.9c-4.3,1.4-8.3-2.7-6.9-6.9l6.9-21.1
			c0.9-2.8-0.5-5.9-3.3-6.9c-5.3-1.9-11-2.9-17-2.9s-11.7,1-17,2.9c-2.8,1-4.3,4.1-3.3,6.9l6.9,21.1c1.4,4.3-2.7,8.3-6.9,6.9
			l-21.1-6.9c-2.8-0.9-5.9,0.5-6.9,3.3c-1.9,5.3-2.9,11-2.9,17c0,5.9,1,11.7,2.9,17c1,2.8,4.1,4.3,6.9,3.3l21.1-6.9
			c4.3-1.4,8.3,2.7,6.9,6.9l-6.9,21.1c-0.9,2.8,0.5,5.9,3.3,6.9c5.3,1.9,11,2.9,17,2.9s11.7-1,17-2.9c2.8-1,4.3-4.1,3.3-6.9
			l-6.9-21.1c-1.4-4.3,2.7-8.3,6.9-6.9l21.1,6.9c2.8,0.9,5.9-0.5,6.9-3.3c1.9-5.3,2.9-11,2.9-17
			C782.3,779.9,781.2,774.2,779.4,768.9z M731,794.3c-4.7,0-8.5-3.8-8.5-8.5s3.8-8.5,8.5-8.5s8.5,3.8,8.5,8.5S735.7,794.3,731,794.3
			z"/>
	</g>
	<g>
		<g>
			<rect x="1043.8" y="675.6" fill="#ADBCC3" width="28.3" height="142.3"/>
			<rect x="1058.2" y="675.6" fill="#D3DEE3" width="13.9" height="142.3"/>
		</g>
		<path fill="#723147" d="M1120.4,868.2h-125c-7.4,0-13.4-6-13.4-13.4l0,0c0-7.4,6-13.4,13.4-13.4h125c7.4,0,13.4,6,13.4,13.4l0,0
			C1133.8,862.2,1127.8,868.2,1120.4,868.2z"/>
		<path fill="#542434" d="M1113.8,842.9h-111.6c-7.4,0-13.4-6-13.4-13.4l0,0c0-7.4,6-13.4,13.4-13.4h111.6c7.4,0,13.4,6,13.4,13.4
			l0,0C1127.1,836.9,1121.1,842.9,1113.8,842.9z"/>
		<path fill="#723147" d="M1107.1,817.6h-98.3c-7.4,0-13.4-6-13.4-13.4v0c0-7.4,6-13.4,13.4-13.4h98.3c7.4,0,13.4,6,13.4,13.4v0
			C1120.4,811.6,1114.5,817.6,1107.1,817.6z"/>
		<path fill="#542434" d="M1100,792.3h-84.2c-7.4,0-13.4-6-13.4-13.4l0,0c0-7.4,6-13.4,13.4-13.4h84.2c7.4,0,13.4,6,13.4,13.4l0,0
			C1113.4,786.3,1107.4,792.3,1100,792.3z"/>
		<circle fill="#B33A3A" cx="1057.9" cy="673.9" r="29.9"/>
		<circle fill="#E66F6F" cx="1054.9" cy="666.5" r="15.8"/>
	</g>
</g>
</svg>
