<?xml version="1.0" encoding="utf-8"?>
<!-- Generator: Adobe Illustrator 18.0.0, SVG Export Plug-In . SVG Version: 6.00 Build 0)  -->
<!DOCTYPE svg PUBLIC "-//W3C//DTD SVG 1.1//EN" "http://www.w3.org/Graphics/SVG/1.1/DTD/svg11.dtd">
<svg version="1.1" id="Layer_1" xmlns="http://www.w3.org/2000/svg" xmlns:xlink="http://www.w3.org/1999/xlink" x="0px" y="0px"
	 viewBox="0 0 1400 980" enable-background="new 0 0 1400 980" xml:space="preserve">
<rect fill="#FFFFFF" width="1400" height="980"/>
<g>
	<rect x="94.2" y="405" fill="#58595B" width="5.8" height="90.3"/>
	<rect x="91.4" y="394" fill="#00A79D" width="12.1" height="21.9"/>
	<g>
		<path fill="#D1D3D4" d="M90.6,321.3c-0.1-0.8-1.8-19.8,1.6-45c3.2-23.4,11.6-56.7,33.9-82.6c23.4-27.1,57-40.8,100-40.8v9.9
			c-40.2,0-71.5,12.6-93,37.5c-39.7,46-33.2,119.2-33.1,119.9L90.6,321.3z"/>
	</g>
	<g>
		<path fill="#00A79D" d="M122,416h-4.7c-4.2,0-7.6-3.4-7.6-7.6v-98.1c0-4.2,3.4-7.6,7.6-7.6h4.7c4.2,0,7.6,3.4,7.6,7.6v98.1
			C129.7,412.5,126.2,416,122,416z"/>
		<path fill="#58595B" d="M90.6,311.8c-9.7,0-17.6,10.2-17.6,22.7v24.6v0.3V384c0,12.5,7.9,22.7,17.6,22.7h19.1v-47.3v-0.3v-47.3
			H90.6z"/>
		<path fill="#53C0A5" d="M64,341.2c0,9.4,0,18.1,0,18.1s0,8.7,0,18.1c0,9.4,8.9,11,8.9,11v-29.1v-29.1C73,330.2,64,331.8,64,341.2z
			"/>
		<path fill="#4A4B4C" d="M73.2,387.3c1.2,11,8.6,19.4,17.4,19.4h19.1v-47.3v-0.3v-47.3H98.4c4.2,5.6,6.6,16.5,6.6,29.9
			c0,19.8,1.1,58.9-11.6,58.9C84.3,400.6,77.4,393.4,73.2,387.3z"/>
	</g>
	<g>
		<path fill="#D1D3D4" d="M361.5,321.3c0.1-0.8,1.8-19.8-1.6-45c-3.2-23.4-11.6-56.7-33.9-82.6c-23.4-27.1-57-40.8-100-40.8v9.9
			c40.2,0,71.5,12.6,93,37.5c39.7,46,33.2,119.2,33.1,119.9L361.5,321.3z"/>
	</g>
	<path fill="#53C0A5" d="M361.1,254.5c-6.8-28.5-18.8-51.8-35.9-69.4c-24.1-24.9-57.5-37.5-99.2-37.5s-75.1,12.6-99.2,37.5
		c-17.1,17.6-29.1,40.9-35.9,69.4c-0.7,2.9,1,5.8,3.8,6.5l9.3,2.2c2.7,0.6,5.3-1.1,6-3.9c14.4-60.4,53.4-91,115.9-91
		s101.5,30.6,115.9,91c0.7,2.8,3.3,4.5,6,3.9l9.3-2.2C360.1,260.3,361.8,257.4,361.1,254.5z"/>
	<g>
		<path fill="#00A79D" d="M330.1,416h4.7c4.2,0,7.6-3.4,7.6-7.6v-98.1c0-4.2-3.4-7.6-7.6-7.6h-4.7c-4.2,0-7.6,3.4-7.6,7.6v98.1
			C322.4,412.5,325.9,416,330.1,416z"/>
		<path fill="#58595B" d="M361.5,311.8c9.7,0,17.6,10.2,17.6,22.7v24.6v0.3V384c0,12.5-7.9,22.7-17.6,22.7h-19.1v-47.3v-0.3v-47.3
			H361.5z"/>
		<path fill="#53C0A5" d="M388.1,341.2c0,9.4,0,18.1,0,18.1s0,8.7,0,18.1c0,9.4-8.9,11-8.9,11v-29.1v-29.1
			C379.1,330.2,388.1,331.8,388.1,341.2z"/>
		<path fill="#4A4B4C" d="M379,387.3c-1.2,11-8.6,19.4-17.4,19.4h-19.1v-47.3v-0.3v-47.3h11.3c-4.2,5.6-6.6,16.5-6.6,29.9
			c0,19.8-1.1,58.9,11.6,58.9C367.8,400.6,374.8,393.4,379,387.3z"/>
	</g>
</g>
<g>
	<g>
		<polygon fill="#009DD9" points="438.3,358.3 426.3,356.1 439.7,289.7 451.7,291.9 		"/>
		<rect x="441" y="244.5" fill="#009DD9" width="12.2" height="36.1"/>
		<g>
			<path fill="#00AEEF" d="M490.5,423.6h-6.4c-7.2,0-13-5.8-13-13v-98c0-7.1,5.8-13,13-13h6.4c7.1,0,13,5.9,13,13v98
				C503.5,417.8,497.7,423.6,490.5,423.6z"/>
			<path fill="#6D6E71" d="M457.9,411.7h13.3v-98.4h-13.3c-3.2,0-5.8,2.6-5.8,5.8v86.8C452,409.1,454.7,411.7,457.9,411.7z"/>
			<path fill="#D1D3D4" d="M426.3,362.5c0,34.5,25.7,38.4,25.7,38.4v-38.4v-38.4C452,324.1,426.3,328,426.3,362.5z"/>
			<path fill="#C2C4C6" d="M432.7,387.3c7.6,11.7,19.3,13.5,19.3,13.5v-38.4v-38.4c0,0-4.4,0.7-9.6,3.9c7,0.4,12.9,49.4,4.4,58.5
				C442,391.8,436.5,389.9,432.7,387.3z"/>
			<rect x="467.5" y="313.3" fill="#404040" width="3.7" height="98.4"/>
			<path fill="#009DD9" d="M489.2,423.6c7.9,0,14.3-6.1,14.3-13.7v-96.7c0-7.5-6.5-13.7-14.3-13.7h-3.7c14,0,11.4,29.4,11.4,56.2
				c0,26.8,0.6,62-9.6,62c-6.3,0-12.4-5.5-16.2-9.6v1.7c0,7.5,6.5,13.7,14.3,13.7H489.2z"/>
		</g>
		<path fill="#D1D3D4" d="M462.9,286.4c-1.7,8.3-10.1,13.7-18.8,12.1c-8.7-1.6-14.4-9.6-12.7-17.9c1.7-8.3,10.1-13.7,18.8-12.1
			C458.9,270.1,464.6,278.1,462.9,286.4z"/>
		<path fill="#BCBEC0" d="M458,285.5c-1.2,5.7-7,9.5-13,8.4c-6-1.1-10-6.6-8.8-12.4c1.2-5.7,7-9.5,13-8.4
			C455.2,274.3,459.2,279.8,458,285.5z"/>
	</g>
	<g>
		<g>
			<polygon fill="#009DD9" points="661.4,358.3 673.4,356.1 660,289.7 648,291.9 			"/>
			<rect x="646.4" y="244.5" fill="#009DD9" width="12.2" height="36.1"/>
			<g>
				<path fill="#00AEEF" d="M609.2,423.6h6.4c7.1,0,13-5.8,13-13v-98c0-7.1-5.9-13-13-13h-6.4c-7.2,0-13,5.9-13,13v98
					C596.2,417.8,602,423.6,609.2,423.6z"/>
				<path fill="#6D6E71" d="M641.8,411.7h-13.3v-98.4h13.3c3.2,0,5.8,2.6,5.8,5.8v86.8C647.6,409.1,645,411.7,641.8,411.7z"/>
				<path fill="#D1D3D4" d="M673.4,362.5c0,34.5-25.7,38.4-25.7,38.4v-38.4v-38.4C647.6,324.1,673.4,328,673.4,362.5z"/>
				<path fill="#C2C4C6" d="M667,387.3c-7.6,11.7-19.3,13.5-19.3,13.5v-38.4v-38.4c0,0,4.4,0.7,9.6,3.9c-7,0.4-12.9,49.4-4.4,58.5
					C657.7,391.8,663.2,389.9,667,387.3z"/>
				<rect x="628.5" y="313.3" fill="#404040" width="3.7" height="98.4"/>
				<path fill="#009DD9" d="M610.5,423.6c-7.9,0-14.3-6.1-14.3-13.7v-96.7c0-7.5,6.5-13.7,14.3-13.7h3.7c-14,0-11.4,29.4-11.4,56.2
					s-0.6,62,9.6,62c6.3,0,12.4-5.5,16.2-9.6v1.7c0,7.5-6.5,13.7-14.3,13.7H610.5z"/>
			</g>
			<path fill="#D1D3D4" d="M636.8,286.4c1.7,8.3,10.1,13.7,18.8,12.1c8.7-1.6,14.4-9.6,12.7-17.9s-10.1-13.7-18.8-12.1
				C640.8,270.1,635.1,278.1,636.8,286.4z"/>
			<path fill="#BCBEC0" d="M641.6,285.5c1.2,5.7,7,9.5,13,8.4c6-1.1,10-6.6,8.8-12.4c-1.2-5.7-7-9.5-13-8.4
				C644.4,274.3,640.5,279.8,641.6,285.5z"/>
		</g>
		<path fill="#D1D3D4" d="M636,175.7c-19.8-20.3-48.8-30.7-86.2-30.7s-66.4,10.3-86.2,30.7c-30.1,31-27.1,73.5-27,75.3l20.9-1.5
			c0-0.4-2.5-35.6,21.5-60.3c15.7-16.1,39.5-24.3,70.8-24.3c31.3,0,55.1,8.2,70.8,24.3c24,24.7,21.5,59.9,21.5,60.3L663,251
			C663.1,249.2,666.1,206.6,636,175.7z"/>
	</g>
</g>
<g>
	<g>
		<path fill="#D1D3D4" d="M865.2,475.1c-3.4,0-5.5-0.1-5.9-0.2l0.5-6.9c0.5,0,47.1,2.9,80.4-22.3c26.4-19.9,21.8-66.6,21.8-67
			l6.9-0.7c0.2,2.1,5,51-24.5,73.2C915.8,472.8,879.3,475.1,865.2,475.1z"/>
	</g>
	<g>
		<path fill="#D1D3D4" d="M712.2,362L712.2,362c-2.4,0-4.4-2-4.4-4.4V287c0-37.7,25-135.7,139.3-135.7v8.9
			c-47,0-82.6,17.1-105.9,50.7c-18.1,26.2-24.6,57.4-24.6,76.2v70.6C716.6,360,714.7,362,712.2,362z"/>
	</g>
	<g>
		<path fill="#8DC63F" d="M776.5,428h-10.7c-11,0-20-9-20-20V316c0-11,9-20,20-20h10.7c11,0,20,9,20,20V408
			C796.5,419,787.5,428,776.5,428z"/>
		<path fill="#E6E7E8" d="M778.6,296.1c-0.6,0-1.1-0.1-1.7-0.1h-11.3c-0.6,0-1.2,0-1.7,0.1v131.8c0.6,0.1,1.1,0.1,1.7,0.1h11.3
			c0.6,0,1.2,0,1.7-0.1V296.1z"/>
		<path fill="#E6E7E8" d="M735.4,328c0,9.8,0,34,0,34s0,24.1,0,34c0,9.8,10.5,9.4,10.5,9.4V362v-43.3
			C745.8,318.7,735.4,318.2,735.4,328z"/>
		<polygon fill="#8DC63F" points="716.6,339.9 716.6,362 716.6,384.2 735.4,392 735.4,362 735.4,332 		"/>
		<path fill="#7FB539" d="M735.4,362v-30l-7.6,3.2c8.5,5.9,3.9,45.8-1.7,47c-4.9,1-7.7-1-9.4-3.1v5.1l18.7,7.9V362z"/>
	</g>
	<g>
		<path fill="#D1D3D4" d="M982,362L982,362c2.4,0,4.4-2,4.4-4.4V287c0-37.7-25-135.7-139.3-135.7v8.9c47,0,82.6,17.1,105.9,50.7
			c18.1,26.2,24.6,57.4,24.6,76.2v70.6C977.6,360,979.5,362,982,362z"/>
	</g>
	<path fill="#8DC63F" d="M967.7,204.6c-19.1-28.9-54.9-60.1-120.6-60.1s-101.6,31.2-120.6,60.1c-2.5,3.8-1.3,8.9,2.7,11.2l5.9,3.4
		c3.6,2.1,8.3,1,10.6-2.5c21.8-32.9,55.9-49.6,101.5-49.6s79.7,16.7,101.5,49.6c2.3,3.5,7,4.6,10.6,2.5l5.9-3.4
		C969,213.5,970.2,208.4,967.7,204.6z"/>
	<g>
		<path fill="#8DC63F" d="M917.7,428h10.7c11,0,20-9,20-20V316c0-11-9-20-20-20h-10.7c-11,0-20,9-20,20V408
			C897.7,419,906.7,428,917.7,428z"/>
		<path fill="#E6E7E8" d="M915.7,296.1c0.6,0,1.1-0.1,1.7-0.1h11.3c0.6,0,1.2,0,1.7,0.1v131.8c-0.6,0.1-1.1,0.1-1.7,0.1h-11.3
			c-0.6,0-1.2,0-1.7-0.1V296.1z"/>
		<path fill="#E6E7E8" d="M958.9,328c0,9.8,0,34,0,34s0,24.1,0,34c0,9.8-10.5,9.4-10.5,9.4V362v-43.3
			C948.4,318.7,958.9,318.2,958.9,328z"/>
		<polygon fill="#8DC63F" points="977.6,339.9 977.6,362 977.6,384.2 958.9,392 958.9,362 958.9,332 		"/>
		<path fill="#7FB539" d="M958.9,362v-30l7.6,3.2c-8.5,5.9-3.9,45.8,1.7,47c4.9,1,7.7-1,9.4-3.1v5.1l-18.7,7.9V362z"/>
	</g>
	<g>
		<path fill="#6D6E71" d="M868.6,485.3h-25.8c-7.3,0-13.3-6-13.3-13.3v-3.5c0-7.3,6-13.3,13.3-13.3h25.8c7.3,0,13.3,6,13.3,13.3v3.5
			C881.9,479.3,875.9,485.3,868.6,485.3z"/>
	</g>
</g>
<g>
	<g>
		<g>
			<path fill="#58595B" d="M1111.1,291.4c-11.3,1.1-31.9,5.6-31.9,24.3c0,25.7,0,53.4,0,53.4s0,27.8,0,53.4
				c0,18.7,20.7,23.2,31.9,24.3c3.8,0.4,7.2-2.2,7.2-5.5v-72.2v-72.2C1118.3,293.6,1115,291,1111.1,291.4z"/>
			<path fill="#F15A29" d="M1061.4,328.1c0,15,0,41,0,41s0,26.1,0,41c0,15,17.9,14.6,17.9,14.6v-55.6v-55.6
				C1079.3,313.5,1061.4,313.1,1061.4,328.1z"/>
			<path fill="#F15A29" d="M1093.2,442.4c3.1,1.4,6.5,2.4,9.7,3.1V292.7c-3.2,0.7-6.5,1.7-9.7,3.1V442.4z"/>
			<path fill="#58595B" d="M1040.1,369.1c0,29,21.2,29.9,21.2,29.9v-29.9v-29.9C1061.4,339.2,1040.1,340.1,1040.1,369.1z"/>
			<path fill="#4D4D4F" d="M1061.4,399v-29.9v-29.9c0,0-5,0.2-10.2,3.8c9,7.9,12.2,35.4,2,42c-3.8,2.5-7,2.5-9.5,1.4
				C1049.7,398.5,1061.4,399,1061.4,399z"/>
			<path fill="#DA5225" d="M1068.7,315.9c12.1,14.8,12.1,91.7,1.6,94.8c-3.5,1.1-6.5,0.2-9-1.6c0,0.3,0,0.6,0,0.9
				c0,15,17.9,14.6,17.9,14.6v-55.6v-55.6C1079.3,313.5,1073.7,313.4,1068.7,315.9z"/>
		</g>
		<g>
			<path fill="#DA5225" d="M1033.9,374.6l-3.7-64.8l6.5-0.4l3.7,64.8c0.1,1.8-1.3,3.3-3.1,3.4v0
				C1035.6,377.8,1034,376.4,1033.9,374.6z"/>
		</g>
	</g>
	<g>
		<g>
			<path fill="#58595B" d="M1246.1,291.4c11.3,1.1,31.9,5.6,31.9,24.3c0,25.7,0,53.4,0,53.4s0,27.8,0,53.4
				c0,18.7-20.7,23.2-31.9,24.3c-3.8,0.4-7.2-2.2-7.2-5.5v-72.2v-72.2C1238.9,293.6,1242.3,291,1246.1,291.4z"/>
			<path fill="#F15A29" d="M1295.9,328.1c0,15,0,41,0,41s0,26.1,0,41c0,15-17.9,14.6-17.9,14.6v-55.6v-55.6
				C1277.9,313.5,1295.9,313.1,1295.9,328.1z"/>
			<path fill="#F15A29" d="M1264,442.4c-3.1,1.4-6.5,2.4-9.7,3.1V292.7c3.2,0.7,6.5,1.7,9.7,3.1V442.4z"/>
			<path fill="#58595B" d="M1317.1,369.1c0,29-21.2,29.9-21.2,29.9v-29.9v-29.9C1295.9,339.2,1317.1,340.1,1317.1,369.1z"/>
			<path fill="#4D4D4F" d="M1295.9,399v-29.9v-29.9c0,0,5,0.2,10.2,3.8c-9,7.9-12.2,35.4-2,42c3.8,2.5,7,2.5,9.5,1.4
				C1307.5,398.5,1295.9,399,1295.9,399z"/>
			<path fill="#DA5225" d="M1288.5,315.9c-12.1,14.8-12.1,91.7-1.6,94.8c3.5,1.1,6.5,0.2,9-1.6c0,0.3,0,0.6,0,0.9
				c0,15-17.9,14.6-17.9,14.6v-55.6v-55.6C1277.9,313.5,1283.6,313.4,1288.5,315.9z"/>
		</g>
		<g>
			<path fill="#DA5225" d="M1323.3,374.6l3.7-64.8l-6.5-0.4l-3.7,64.8c-0.1,1.8,1.3,3.3,3.1,3.4h0
				C1321.6,377.8,1323.2,376.4,1323.3,374.6z"/>
		</g>
		<path fill="#58595B" d="M1334.5,287.1c0,0-15.9-8.7-17.4-35.2c-1.4-26.5,3.4-29-8.7-45.4s-42.5-65.1-129.8-65.1
			s-117.7,48.7-129.8,65.1c-12.1,16.4-7.2,18.8-8.7,45.4c-1.4,26.5-17.4,35.2-17.4,35.2c-3.4,17.9,0,34.7,0,34.7l20.9-12.4
			c0-152.3,135-141.5,135-141.5s135-10.8,135,141.5l20.9,12.4C1334.5,321.8,1337.8,304.9,1334.5,287.1z"/>
	</g>
</g>
<g>
	<g>
		<path fill="#A7A9AC" d="M101.8,770.7c-7.6,0-20-4.7-23.6-23.4c-1.6-8.5-2.7-31.6,1.3-57.6c3.6-23.6,12.6-57.5,35-85
			c26.4-32.4,65-48.8,114.7-48.8v8c-47.3,0-83.8,15.5-108.6,45.9c-40.5,49.8-37,123.5-34.6,135.9c3.5,18.5,16.5,17,17,16.9l1,7.9
			C103.3,770.7,102.6,770.7,101.8,770.7z"/>
	</g>
	<path fill="#58595B" d="M112.8,810.2h-5c-6.5,0-11.9-5.4-11.9-11.9V735c0-6.5,5.4-11.9,11.9-11.9h5c6.5,0,11.9,5.4,11.9,11.9v63.4
		C124.7,804.9,119.3,810.2,112.8,810.2z"/>
	<path fill="#58595B" d="M152.3,710.4h-22.5v112.5h22.5c5.3,0,9.5-3.9,9.5-8.6V719C161.8,714.3,157.5,710.4,152.3,710.4z"/>
	<path fill="#9B8579" d="M123,710.4c-5.3,0-9.5,3.9-9.5,8.6v95.3c0,4.7,4.3,8.6,9.5,8.6h7.1V710.4H123z"/>
	<ellipse fill="#A7A9AC" cx="88.5" cy="663.3" rx="12.2" ry="12.3"/>
	<ellipse fill="#D1D3D4" cx="88.5" cy="663.3" rx="7.2" ry="7.3"/>
	<g>
		<path fill="#A7A9AC" d="M356.6,770.7c7.6,0,20-4.7,23.6-23.4c1.6-8.5,2.7-31.6-1.3-57.6c-3.6-23.6-12.6-57.5-35-85
			c-26.4-32.4-65-48.8-114.7-48.8v8c47.3,0,83.8,15.5,108.6,45.9c40.5,49.8,37,123.5,34.6,135.9c-3.5,18.5-16.5,17-17,16.9l-1,7.9
			C355,770.7,355.8,770.7,356.6,770.7z"/>
	</g>
	<path fill="#58595B" d="M324.7,578.5c-25.3-18.8-57.4-28.3-95.6-28.3s-70.3,9.5-95.6,28.3c-2.3,1.7-2.8,5-1,7.3l5.8,7.3
		c1.7,2.1,4.7,2.6,6.9,1c21.9-16.2,50.1-24.4,83.9-24.4s62,8.2,83.9,24.4c2.2,1.6,5.2,1.2,6.9-1l5.8-7.3
		C327.5,583.5,327.1,580.2,324.7,578.5z"/>
	<path fill="#58595B" d="M345.6,810.2h5c6.5,0,11.9-5.4,11.9-11.9V735c0-6.5-5.4-11.9-11.9-11.9h-5c-6.5,0-11.9,5.4-11.9,11.9v63.4
		C333.7,804.9,339.1,810.2,345.6,810.2z"/>
	<path fill="#58595B" d="M306.1,710.4h22.5v112.5h-22.5c-5.3,0-9.5-3.9-9.5-8.6V719C296.5,714.3,300.8,710.4,306.1,710.4z"/>
	<path fill="#9B8579" d="M335.4,710.4c5.3,0,9.5,3.9,9.5,8.6v95.3c0,4.7-4.3,8.6-9.5,8.6h-7.1V710.4H335.4z"/>
	<ellipse fill="#A7A9AC" cx="369.9" cy="663.3" rx="12.2" ry="12.3"/>
	<ellipse fill="#D1D3D4" cx="369.9" cy="663.3" rx="7.2" ry="7.3"/>
</g>
<g>
	<path fill="#B43E97" d="M560.5,565.9c0,0-74.8,9.9-79.7,39c0,0,8.9-5.5,15.6-2.2c0,0,18.1-21.8,64.1-21.8s64.1,21.8,64.1,21.8
		c6.8-3.3,15.6,2.2,15.6,2.2C635.2,575.8,560.5,565.9,560.5,565.9z"/>
	<g>
		<path fill="#A7A9AC" d="M432.8,736.7c-0.1-0.9-1.8-22.3,2.2-50.1c3.7-25.8,13.1-62.2,37.4-88.5c21.6-23.5,51.3-35.4,88.1-35.4v6.7
			c-34.9,0-62.9,11.2-83.1,33.2c-44.3,48.1-37.9,132.7-37.9,133.5L432.8,736.7z"/>
	</g>
	<g>
		<path fill="#7F3F98" d="M453,826.8h-7c-5.5,0-9.9-4.5-9.9-9.9v-92.7c0-5.5,4.5-9.9,9.9-9.9h7c5.5,0,9.9,4.5,9.9,9.9v92.7
			C462.9,822.4,458.4,826.8,453,826.8z"/>
		<path fill="#F1F2F2" d="M442.1,825.6c1.2,0.6,2.5,1,3.9,1.2V714.3c-1.4,0.1-2.7,0.6-3.9,1.2V825.6z"/>
		<path fill="#F1F2F2" d="M452.9,826.8c1.4-0.1,2.7-0.6,3.9-1.2V715.5c-1.2-0.6-2.5-1-3.9-1.2V826.8z"/>
		<path fill="#E6E7E8" d="M409.8,770.6c0,35.8,26.3,45.2,26.3,45.2v-45.2v-45.2C436.1,725.3,409.8,734.8,409.8,770.6z"/>
		<path fill="#D8D9DA" d="M427.7,795.2c-5.2,1.4-10.9-2.3-15.1-6.1c6.7,20.6,23.5,26.7,23.5,26.7v-45.2v-45.2c0,0-2.5,0.9-5.9,3.1
			C438.8,737.9,436.6,792.8,427.7,795.2z"/>
	</g>
	<g>
		<path fill="#A7A9AC" d="M688.2,736.7c0.1-0.9,1.8-22.3-2.2-50.1c-3.7-25.8-13.1-62.2-37.4-88.5c-21.6-23.5-51.3-35.4-88.1-35.4
			v6.7c34.9,0,62.9,11.2,83.1,33.2c44.3,48.1,37.9,132.7,37.9,133.5L688.2,736.7z"/>
	</g>
	<path fill="#7F3F98" d="M651.8,595.9c-22.4-24.6-53.2-37.1-91.4-37.1s-69,12.5-91.4,37.1c-16.8,18.5-28.7,43.4-35.2,74.2l10.7,2.3
		c0,0,5.1-6.6,6.1-10.4c11.6-42.8,40.3-88.7,109.7-88.7s98,45.9,109.7,88.7c1,3.7,6.1,10.4,6.1,10.4l10.7-2.3
		C680.5,639.3,668.7,614.4,651.8,595.9z"/>
	<g>
		<path fill="#7F3F98" d="M667.9,826.8h7c5.5,0,9.9-4.5,9.9-9.9v-92.7c0-5.5-4.5-9.9-9.9-9.9h-7c-5.5,0-9.9,4.5-9.9,9.9v92.7
			C658,822.4,662.5,826.8,667.9,826.8z"/>
		<path fill="#F1F2F2" d="M678.8,825.6c-1.2,0.6-2.5,1-3.9,1.2V714.3c1.4,0.1,2.7,0.6,3.9,1.2V825.6z"/>
		<path fill="#F1F2F2" d="M668,826.8c-1.4-0.1-2.7-0.6-3.9-1.2V715.5c1.2-0.6,2.5-1,3.9-1.2V826.8z"/>
		<path fill="#E6E7E8" d="M711.1,770.6c0,35.8-26.3,45.2-26.3,45.2v-45.2v-45.2C684.8,725.3,711.1,734.8,711.1,770.6z"/>
		<path fill="#D8D9DA" d="M693.2,795.2c5.2,1.4,10.9-2.3,15.1-6.1c-6.7,20.6-23.5,26.7-23.5,26.7v-45.2v-45.2c0,0,2.5,0.9,5.9,3.1
			C682.1,737.9,684.3,792.8,693.2,795.2z"/>
	</g>
</g>
<g>
	<path fill="#EE2A7B" d="M881.9,587.7c0,0-62.1-8.3-90.1,38.6c0,0,8.5,8.4,17.4,0c8.9-8.4,26.1-26.9,72.6-26.9
		c46.5,0,63.7,18.5,72.6,26.9c8.9,8.4,17.4,0,17.4,0C943.9,579.3,881.9,587.7,881.9,587.7z"/>
	<path fill="#CBCCCE" d="M977.4,620.9c-20.8-27.5-53-41.4-95.5-41.4c-42.5,0-74.7,13.9-95.5,41.4c-32.7,43.1-25.7,103.4-25.3,106
		l7.1-1.2c-0.1-0.6-6.9-59.1,23.7-99.4c19.4-25.6,49.7-38.6,90.1-38.6c40.3,0,70.6,13,90.1,38.6c30.6,40.3,23.7,98.8,23.7,99.4
		l7.1,1.2C1003.1,724.3,1010.1,664,977.4,620.9z"/>
	<g>
		<path fill="#E6E7E8" d="M752.7,731.8c0,0,1.6-19.9,11.9-19.9s12.2,14.4,12.2,14.4S765.6,743.7,752.7,731.8z"/>
		<path fill="#CBCCCE" d="M776.5,725.1c-0.6-3-2.9-11.1-9.3-12.9c2.2,1.9,3.8,5-0.8,9.3c-5.6,5.1-10.3,4.9-12.8,4.2
			c-0.8,3.4-1,6.1-1,6.1c1.5,1.4,2.9,2.3,4.3,3L776.5,725.1z"/>
		<path fill="#EE2A7B" d="M764.6,726.2c0,0-34.4,8.5-34.4,50.3c0,45,38.3,49.8,38.3,49.8L764.6,726.2z"/>
		<path fill="#D0226C" d="M745.9,776.3c0.5,19.4,7.7,31.5,1.9,32.9c-3.4,0.9-8.7-3.9-12.6-8c10.4,22.3,33.4,25.1,33.4,25.1l-4-100
			C755.7,731,745.4,756.8,745.9,776.3z"/>
		<path fill="#58595B" d="M809.2,780.3c0,34.2-6.6,58.4-25,58.4s-33.4-27.7-33.4-61.9c0-34.2,15-61.9,33.4-61.9
			S809.2,746.1,809.2,780.3z"/>
		<ellipse fill="#414042" cx="791" cy="776.5" rx="6.5" ry="32.7"/>
	</g>
	<g>
		<path fill="#E6E7E8" d="M1011.1,731.8c0,0-1.6-19.9-11.9-19.9c-10.3,0-12.2,14.4-12.2,14.4S998.2,743.7,1011.1,731.8z"/>
		<path fill="#CBCCCE" d="M987.2,725.1c0.6-3,2.9-11.1,9.3-12.9c-2.2,1.9-3.8,5,0.8,9.3c5.6,5.1,10.3,4.9,12.8,4.2
			c0.8,3.4,1,6.1,1,6.1c-1.5,1.4-2.9,2.3-4.3,3L987.2,725.1z"/>
		<path fill="#EE2A7B" d="M999.2,726.2c0,0,34.4,8.5,34.4,50.3c0,45-38.3,49.8-38.3,49.8L999.2,726.2z"/>
		<path fill="#D0226C" d="M1017.9,776.3c-0.5,19.4-7.7,31.5-1.9,32.9c3.4,0.9,8.7-3.9,12.6-8c-10.4,22.3-33.4,25.1-33.4,25.1l4-100
			C1008,731,1018.4,756.8,1017.9,776.3z"/>
		<path fill="#58595B" d="M954.5,780.3c0,34.2,6.6,58.4,25,58.4c18.5,0,33.4-27.7,33.4-61.9c0-34.2-15-61.9-33.4-61.9
			C961.1,714.9,954.5,746.1,954.5,780.3z"/>
		<ellipse fill="#414042" cx="972.8" cy="776.5" rx="6.5" ry="32.7"/>
	</g>
</g>
<g>
	<g>
		<path fill="#C2C4C6" d="M1078,681c0-1.8,0.1-45.3,30.7-76c19-19.1,45.5-28.8,78.8-28.8v7.8c-31.1,0-55.7,8.9-73.2,26.5
			c-28.3,28.4-28.4,70.1-28.4,70.5L1078,681z"/>
	</g>
	<g>
		
			<rect x="1075.1" y="680.9" transform="matrix(0.9981 6.166603e-002 -6.166603e-002 0.9981 46.9467 -65.1552)" fill="#C2C4C6" width="7.8" height="94.2"/>
	</g>
	<g>
		<polygon fill="#C2C4C6" points="1095.1,736.5 1082,747.3 1082,775 1082,775.9 1082,803.6 1095.1,814.4 1095.1,775.5 		"/>
	</g>
	<g>
		<path fill="#ED1C24" d="M1129.1,837h-6.4c-7.2,0-13-5.9-13-13v-98c0-7.2,5.8-13,13-13h6.4c7.1,0,13,5.8,13,13v98
			C1142.1,831.2,1136.2,837,1129.1,837z"/>
	</g>
	<g>
		<path fill="#6D6E71" d="M1101,825.1h8.7v-98.4h-8.7c-3.2,0-5.8,2.6-5.8,5.8v86.8C1095.1,822.5,1097.7,825.1,1101,825.1z"/>
	</g>
	<g>
		<rect x="1106" y="726.7" fill="#404040" width="3.7" height="98.4"/>
	</g>
	<g>
		<path fill="#D1181F" d="M1127.7,837c7.9,0,14.3-6.1,14.3-13.7v-96.7c0-7.5-6.5-13.7-14.3-13.7h-3.7c14,0,11.4,29.4,11.4,56.2
			s0.6,62-9.6,62c-6.3,0-12.4-5.5-16.2-9.6v1.7c0,7.5,6.5,13.7,14.3,13.7H1127.7z"/>
	</g>
	<g>
		<g>
			<path fill="#D1D3D4" d="M1092.2,682.9c-1.1,5.4-6.6,9-12.3,7.9c-5.7-1-9.4-6.3-8.3-11.7c1.1-5.4,6.6-9,12.3-7.9
				C1089.6,672.2,1093.3,677.5,1092.2,682.9z"/>
		</g>
		<g>
			<path fill="#BCBEC0" d="M1089.1,682.3c-0.8,3.7-4.5,6.2-8.5,5.5c-3.9-0.7-6.5-4.3-5.7-8.1c0.8-3.7,4.5-6.2,8.5-5.5
				C1087.2,674.9,1089.8,678.5,1089.1,682.3z"/>
		</g>
	</g>
	<g>
		<path fill="#ED1C24" d="M1077.3,791.1h4.7V759h-4.7c-3.8,0-7,3.1-7,7v18.2C1070.3,788,1073.5,791.1,1077.3,791.1z"/>
	</g>
	<g>
		<path fill="#C2C4C6" d="M1296.9,681l-7.8,0c0-0.4-0.2-42.2-28.5-70.5c-17.5-17.6-42.1-26.5-73.2-26.5v-7.8
			c33.2,0,59.7,9.7,78.8,28.8C1296.8,635.7,1296.9,679.2,1296.9,681z"/>
	</g>
	<g>
		<path fill="#ED1C24" d="M1296.1,646.5c-4.3-13.9-12.2-30.8-26.3-45c-20-20.1-47.7-30.3-82.4-30.3c-34.6,0-62.4,10.2-82.4,30.3
			c-14.1,14.2-22,31.1-26.3,45c-1.5,5,1.4,10.2,6.5,11.3c4.5,1.1,9.2-1.6,10.5-6c9.3-30.3,32.9-62.8,91.6-62.8
			c58.7,0,82.4,32.5,91.6,62.8c1.4,4.5,6,7.1,10.5,6C1294.7,656.7,1297.7,651.5,1296.1,646.5z"/>
	</g>
	<g>
		
			<rect x="1248.8" y="724.1" transform="matrix(6.167044e-002 0.9981 -0.9981 6.167044e-002 1942.6365 -610.3654)" fill="#C2C4C6" width="94.2" height="7.8"/>
	</g>
	<g>
		<polygon fill="#C2C4C6" points="1279.9,736.5 1293,747.3 1293,775 1293,775.9 1293,803.6 1279.9,814.4 1279.9,775.5 		"/>
	</g>
	<g>
		<path fill="#ED1C24" d="M1245.9,837h6.4c7.2,0,13-5.9,13-13v-98c0-7.2-5.8-13-13-13h-6.4c-7.2,0-13,5.8-13,13v98
			C1232.9,831.2,1238.8,837,1245.9,837z"/>
	</g>
	<g>
		<path fill="#6D6E71" d="M1274,825.1h-8.7v-98.4h8.7c3.2,0,5.8,2.6,5.8,5.8v86.8C1279.9,822.5,1277.2,825.1,1274,825.1z"/>
	</g>
	<g>
		<rect x="1265.3" y="726.7" fill="#404040" width="3.7" height="98.4"/>
	</g>
	<g>
		<path fill="#D1181F" d="M1247.3,837c-7.9,0-14.3-6.1-14.3-13.7v-96.7c0-7.5,6.5-13.7,14.3-13.7h3.7c-14,0-11.4,29.4-11.4,56.2
			s-0.6,62,9.6,62c6.3,0,12.4-5.5,16.2-9.6v1.7c0,7.5-6.5,13.7-14.3,13.7H1247.3z"/>
	</g>
	<g>
		<g>
			<path fill="#D1D3D4" d="M1282.8,682.9c1.1,5.4,6.6,9,12.3,7.9c5.7-1,9.4-6.3,8.3-11.7c-1.1-5.4-6.6-9-12.3-7.9
				C1285.4,672.2,1281.7,677.5,1282.8,682.9z"/>
		</g>
		<g>
			<path fill="#BCBEC0" d="M1285.9,682.3c0.8,3.7,4.5,6.2,8.5,5.5c3.9-0.7,6.5-4.3,5.7-8.1s-4.5-6.2-8.5-5.5
				C1287.8,674.9,1285.2,678.5,1285.9,682.3z"/>
		</g>
	</g>
	<g>
		<path fill="#ED1C24" d="M1297.7,791.1h-4.7V759h4.7c3.8,0,7,3.1,7,7v18.2C1304.7,788,1301.5,791.1,1297.7,791.1z"/>
	</g>
</g>
</svg>
