<?xml version="1.0" encoding="utf-8"?>
<!-- Generator: Adobe Illustrator 22.1.0, SVG Export Plug-In . SVG Version: 6.00 Build 0)  -->
<svg version="1.1" id="Layer_1" xmlns="http://www.w3.org/2000/svg" xmlns:xlink="http://www.w3.org/1999/xlink" x="0px" y="0px"
	 viewBox="0 0 1400 980" style="enable-background:new 0 0 1400 980;" xml:space="preserve">
<style type="text/css">
	.st0{fill:#FFD444;}
	.st1{fill:#E5AF3D;}
	.st2{fill:#FECAB3;}
	.st3{fill:#F9DDD2;}
	.st4{fill:#F7AF9B;}
	.st5{fill:#3F3A3A;}
	.st6{fill:#3C99D3;}
	.st7{fill:#4F4D4D;}
	.st8{fill:#B0C8D6;}
	.st9{font-family:'FranklinGothic-Medium';}
	.st10{font-size:20.3222px;}
	.st11{font-size:7.0472px;}
	.st12{opacity:0.3;fill:#3F3A3A;}
	.st13{opacity:0.3;}
	.st14{fill:#282626;}
	.st15{fill:#E0E0E0;}
	.st16{fill:#C9C9C9;}
	.st17{fill:#FFFFFF;}
	.st18{fill:#3A89E6;}
	.st19{fill:#E17957;}
	.st20{fill:#DA8D7E;}
	.st21{fill:#323432;}
	.st22{fill:#F4911F;}
	.st23{fill:#D39428;}
	.st24{fill:#BA791A;}
	.st25{fill:#D1462A;}
	.st26{font-size:12px;}
	.st27{font-size:4px;}
	.st28{fill:#A0D065;}
	.st29{fill:#B493DB;}
	.st30{fill:#EFCB97;}
	.st31{fill:#DBB482;}
	.st32{opacity:0.3;fill:#BF8E5C;}
	.st33{fill:#E9695B;}
	.st34{fill:#56A692;}
	.st35{fill:#5FBFC9;}
	.st36{opacity:0.5;}
	.st37{fill:#71D7F0;}
	.st38{fill:#FF7043;}
	.st39{fill:#F5F5F6;}
	.st40{fill:#D8D8D8;}
	.st41{fill:#BF252D;}
	.st42{fill:#D22C2D;}
	.st43{font-size:18.2489px;}
</style>
<rect class="st0" width="1400" height="980"/>
<path class="st1" d="M700,52c-241.9,0-438,196.1-438,438s196.1,438,438,438s438-196.1,438-438S941.9,52,700,52z M700,919.5
	c-237.2,0-429.5-192.3-429.5-429.5S462.8,60.5,700,60.5s429.5,192.3,429.5,429.5S937.2,919.5,700,919.5z"/>
<path class="st1" d="M700,132.2c-197.6,0-357.8,160.2-357.8,357.8S502.4,847.8,700,847.8s357.8-160.2,357.8-357.8
	S897.6,132.2,700,132.2z M700,836.4c-191.3,0-346.4-155.1-346.4-346.4S508.7,143.6,700,143.6s346.4,155.1,346.4,346.4
	S891.3,836.4,700,836.4z"/>
<path class="st1" d="M700,201c-159.6,0-289,129.4-289,289s129.4,289,289,289s289-129.4,289-289S859.6,201,700,201z M700,763.2
	c-150.9,0-273.2-122.3-273.2-273.2S549.1,216.8,700,216.8S973.2,339.1,973.2,490S850.9,763.2,700,763.2z"/>
<circle class="st1" cx="700" cy="490" r="194.2"/>
<g>
	<path class="st2" d="M799.1,511.3c-1-5.5-1-9.9-1-9.9c1.5-35.5,23.7-39.9,23.7-39.9c13.3-3,13.3,13.3,13.3,13.3l-2.9,60
		c0.4,13.1,1.9,34.8,7.3,58.1c2.2,9.5,3.4,19.1,3.2,28.9c-0.2,9.4-1.7,20.2-6.1,29.1c0,0-24.3,54.4-47.3,86.4
		c-7.6,10.5-11.8,23.1-11.9,36c0,0.1,0,0.2,0,0.4v31.1H639.8c0,0,5.9-53.3-23.7-82.8c0,0-54.7-54.7-28.4-152l9.9-39.5l29.7-26.5
		c0,0,116.1,13.9,164.9,68.6l6.8-33.3C800.9,530,800.8,520.5,799.1,511.3z"/>
	<path class="st3" d="M835.1,474.8l-1.6,32.8l-7-1.6c-3.8-0.9-6.4-4.5-5.9-8.4l1.8-13.7c0.9-7.1,4.8-13.4,10.7-17.4l0.2,0
		C835.1,470.4,835.1,474.8,835.1,474.8z"/>
	<path class="st4" d="M775.1,747.7c0,0-14.8,17.8-45.9,17.8C729.3,765.5,775.1,774.4,775.1,747.7z"/>
	<path class="st4" d="M815.1,644.2c0,0-2.2,48.1-45.1,48.1h-50.3c0,0-9.6-0.7-19.2,7.4c0,0-18.5,14.1-38.5-4.4
		c0,0-17-15.5-48.8-19.2c0,0-24.4-2.2-29.2-20.5c0,0,0,0,0,0c-4.8-23-5.4-51.8,3.7-85.7l9.9-39.5l29.7-26.5
		c0,0,116.1,13.9,164.9,68.6l6.8-33.3c0.9-4.6,1.4-9.2,1.4-13.9c0-1.1,0-2.1-0.1-3.2c-0.1-1.4-0.2-2.8-0.3-4.1v0h0
		C800,518,815.1,568.7,815.1,644.2z"/>
	<g>
		<path class="st5" d="M777.5,682.5H638.2c-14.2,0-25.8-11.5-25.8-25.8v-291c0-14.2,11.5-25.8,25.8-25.8h139.3
			c14.2,0,25.8,11.5,25.8,25.8v291C803.2,671,791.7,682.5,777.5,682.5z"/>
		<path class="st6" d="M794,367.1v288.3c0,9.5-7.7,17.1-17.1,17.1h-138c-9.5,0-17.1-7.7-17.1-17.1V367.1c0-9.5,7.7-17.1,17.1-17.1
			h32.1c2.5,0,4.7,1.5,5.6,3.8l2.5,6.3c0.9,2.3,3.1,3.8,5.6,3.8h46.6c2.5,0,4.7-1.5,5.6-3.8l2.5-6.3c0.9-2.3,3.1-3.8,5.6-3.8h32.1
			C786.3,350,794,357.7,794,367.1z"/>
		<g>
			<g>
				<g>
					<circle class="st7" cx="725.3" cy="353.8" r="3"/>
				</g>
			</g>
			<path class="st7" d="M716.9,355.2h-18.1c-0.8,0-1.4-0.6-1.4-1.4l0,0c0-0.8,0.6-1.4,1.4-1.4h18.1c0.8,0,1.4,0.6,1.4,1.4l0,0
				C718.3,354.6,717.7,355.2,716.9,355.2z"/>
		</g>
		<g>
			<path class="st8" d="M707.8,400.9l-9.8,5.3l0.2,0.3l0.4-0.2v0.4h1.6v0.6h-0.6v0.4H716v-0.4h-0.6v-0.6h1.6v-0.4l0.4,0.2l0.2-0.3
				L707.8,400.9z M715,407.4h-14.3v-0.6H715V407.4z M716.6,406.4h-17.5v-0.3l8.7-4.8l8.7,4.8V406.4z"/>
			<path class="st8" d="M718,416.3v-0.4h-1.5v-0.7h0.3v-0.4h-18v0.4h0.3v0.7h-1.5v0.4h0.3v0.6h-0.3v0.4H718v-0.4h-0.3v-0.6H718z
				 M699.6,415.2H716v0.7h-16.4V415.2z M717.3,416.9h-18.9v-0.6h18.9V416.9z"/>
			<polygon class="st8" points="714.5,405.8 701.1,405.8 707.8,402.2 			"/>
			<g>
				<path class="st8" d="M702.4,413.3h-0.3v-4.4c0.3,0,0.5-0.2,0.5-0.5c0-0.3-0.2-0.5-0.5-0.5l0,0h-1.8c-0.3,0-0.5,0.2-0.5,0.5
					c0,0.3,0.2,0.5,0.5,0.5v4.4H700v1h-0.2v0.5h2.8v-0.5h-0.2V413.3z M702.3,408.4c0,0.1-0.1,0.2-0.2,0.2c-0.1,0-0.2-0.1-0.2-0.2
					c0-0.1,0.1-0.2,0.2-0.2S702.3,408.3,702.3,408.4z M700.2,408.4c0-0.1,0.1-0.2,0.2-0.2c0.1,0,0.2,0.1,0.2,0.2
					c0,0.1-0.1,0.2-0.2,0.2C700.2,408.5,700.2,408.5,700.2,408.4z M700.8,408.6c0,0,0-0.1,0-0.1h0.7c0,0,0,0.1,0,0.1v4.7h-0.8V408.6
					z M700.5,414.3v-0.6h1.5v0.6H700.5z"/>
				<path class="st8" d="M715.6,413.3h-0.3v-4.4c0.3,0,0.5-0.2,0.5-0.5c0-0.3-0.2-0.5-0.5-0.5l0,0h-1.8c-0.3,0-0.5,0.2-0.5,0.5
					c0,0.3,0.2,0.5,0.5,0.5v4.4h-0.3v1H713v0.5h2.8v-0.5h-0.2V413.3z M715.5,408.4c0,0.1-0.1,0.2-0.2,0.2c-0.1,0-0.2-0.1-0.2-0.2
					c0-0.1,0.1-0.2,0.2-0.2C715.4,408.2,715.5,408.3,715.5,408.4z M713.4,408.4c0-0.1,0.1-0.2,0.2-0.2c0.1,0,0.2,0.1,0.2,0.2
					c0,0.1-0.1,0.2-0.2,0.2C713.4,408.5,713.4,408.5,713.4,408.4z M714,408.6c0,0,0-0.1,0-0.1h0.7c0,0,0,0.1,0,0.1v4.7H714V408.6z
					 M713.7,414.3v-0.6h1.5v0.6H713.7z"/>
				<path class="st8" d="M711.2,413.3h-0.3v-4.4c0.3,0,0.5-0.2,0.5-0.5c0-0.3-0.2-0.5-0.5-0.5l0,0h-1.8c-0.3,0-0.5,0.2-0.5,0.5
					c0,0.3,0.2,0.5,0.5,0.5v4.4h-0.3v1h-0.2v0.5h2.8v-0.5h-0.2V413.3z M711.1,408.4c0,0.1-0.1,0.2-0.2,0.2c-0.1,0-0.2-0.1-0.2-0.2
					c0-0.1,0.1-0.2,0.2-0.2S711.1,408.3,711.1,408.4z M708.9,408.4c0-0.1,0.1-0.2,0.2-0.2c0.1,0,0.2,0.1,0.2,0.2
					c0,0.1-0.1,0.2-0.2,0.2C709,408.5,708.9,408.5,708.9,408.4z M709.6,408.6c0,0,0-0.1,0-0.1h0.7c0,0,0,0.1,0,0.1v4.7h-0.8V408.6z
					 M709.3,414.3v-0.6h1.5v0.6H709.3z"/>
				<path class="st8" d="M706.8,413.3h-0.3v-4.4c0.3,0,0.5-0.2,0.5-0.5c0-0.3-0.2-0.5-0.5-0.5l0,0h-1.8c-0.3,0-0.5,0.2-0.5,0.5
					c0,0.3,0.2,0.5,0.5,0.5v4.4h-0.3v1h-0.2v0.5h2.8v-0.5h-0.2V413.3z M706.7,408.4c0,0.1-0.1,0.2-0.2,0.2c-0.1,0-0.2-0.1-0.2-0.2
					c0-0.1,0.1-0.2,0.2-0.2S706.7,408.3,706.7,408.4z M704.6,408.4c0-0.1,0.1-0.2,0.2-0.2c0.1,0,0.2,0.1,0.2,0.2
					c0,0.1-0.1,0.2-0.2,0.2C704.6,408.5,704.6,408.5,704.6,408.4z M705.2,408.6c0,0,0-0.1,0-0.1h0.7c0,0,0,0.1,0,0.1v4.7h-0.8V408.6
					z M704.9,414.3v-0.6h1.5v0.6H704.9z"/>
			</g>
		</g>
		<text transform="matrix(1 0 0 1 673.7493 435.7861)" class="st8 st9 st10">MOBILE</text>
		<text transform="matrix(1 0 0 1 666.8479 454.3525)" class="st8 st9 st10">BANKING</text>
		<text transform="matrix(1 0 0 1 667.3176 546.7344)" class="st8 st9 st11">Use phone number instead</text>
		<rect x="621.7" y="603.5" class="st12" width="172.3" height="18.1"/>
		<text transform="matrix(1 0 0 1 698.6516 614.3916)" class="st8 st9 st11">Log In</text>
		<text transform="matrix(1 0 0 1 630.7346 493.5166)" class="st8 st9 st11">E-Mail</text>
		<text transform="matrix(1 0 0 1 630.7346 517.9326)" class="st8 st9 st11">Password</text>
		<text transform="matrix(1 0 0 1 762.2668 517.9326)" class="st8 st9 st11">Forgot?</text>
		<rect x="630.7" y="501.7" class="st8" width="154.2" height="0.7"/>
		<rect x="630.7" y="526.2" class="st8" width="154.2" height="0.7"/>
		<g class="st13">
			<g>
				<path class="st8" d="M774.8,350L671.5,672.5h-32.7c-9.5,0-17.1-7.7-17.1-17.1v-55.5l75.6-236.1h33.9c2.5,0,4.7-1.5,5.6-3.8
					l2.5-6.3c0.9-2.3,3.1-3.8,5.6-3.8H774.8z"/>
				<path class="st8" d="M794,367.1v54.7l-80.3,250.7h-27.1l101.8-318C791.8,357.6,794,362.1,794,367.1z"/>
			</g>
		</g>
	</g>
	<g>
		<path class="st2" d="M633,549.2l-56.4-31.1c-7-3.9-9.6-12.7-5.7-19.8l3.8-6.9c3.9-7,12.7-9.6,19.8-5.7l56.4,31.1
			c8.1,4.5,11.1,14.7,6.6,22.9l-1.6,2.9C651.4,550.7,641.1,553.7,633,549.2z"/>
		<path class="st3" d="M634.6,545.4l-0.5-0.3c-2.9-1.6-4-5.3-2.4-8.3l8-14.5c1.6-2.9,5.3-4,8.3-2.4l0.5,0.3
			c6.3,3.5,8.6,11.4,5.1,17.7l-1.3,2.4C648.8,546.6,640.9,548.9,634.6,545.4z"/>
	</g>
	<g>
		<path class="st2" d="M626.5,585l-59.9-23.5c-7.5-2.9-11.2-11.4-8.3-18.9l2.9-7.3c2.9-7.5,11.4-11.2,18.9-8.3l59.9,23.5
			c8.7,3.4,12.9,13.2,9.5,21.8l-1.2,3.1C645,584.1,635.2,588.4,626.5,585z"/>
		<path class="st3" d="M627.7,581l-0.6-0.2c-3.1-1.2-4.7-4.8-3.4-7.9l6.1-15.4c1.2-3.1,4.8-4.7,7.9-3.4l0.6,0.2
			c6.7,2.6,10,10.2,7.4,16.9l-1,2.6C641.9,580.4,634.3,583.7,627.7,581z"/>
	</g>
	<g>
		<path class="st2" d="M634.8,625.9l-61.7-18.3c-7.7-2.3-12.1-10.4-9.8-18.1l2.2-7.5c2.3-7.7,10.4-12.1,18.1-9.8l61.7,18.3
			c8.9,2.6,14,12,11.3,20.9l-0.9,3.2C653.1,623.5,643.7,628.6,634.8,625.9z"/>
		<path class="st3" d="M635.6,621.9l-0.6-0.2c-3.2-1-5.1-4.3-4.1-7.6l4.7-15.9c1-3.2,4.3-5.1,7.6-4.1l0.6,0.2
			c6.9,2,10.8,9.3,8.8,16.2l-0.8,2.6C649.7,620,642.5,623.9,635.6,621.9z"/>
	</g>
	<g>
		<path class="st2" d="M651,667.9l-62.6-3.6c-8.5-0.5-14.9-7.7-14.4-16.2l0.6-10.3c0.5-8.5,7.7-14.9,16.2-14.4l62.6,3.6
			c9.8,0.6,17.2,8.9,16.7,18.7l-0.3,5.5C669.1,661,660.7,668.5,651,667.9z"/>
		<path class="st3" d="M651.3,663.4L651.3,663.4c-3.5-0.2-6.1-3.2-5.9-6.6l1.1-19.2c0.2-3.5,3.2-6.1,6.6-5.9l0,0
			c7.4,0.4,13.1,6.8,12.6,14.2l-0.3,5C665,658.1,658.7,663.8,651.3,663.4z"/>
	</g>
	<path class="st4" d="M711.6,804.7c-56.1-8.1-68.4-42.9-68.4-42.9l0,0c12.9,8.7,38.7,3.8,38.7,3.8c-31.1,0-50-21.9-51.9-23.3
		c13.4,28.7,9.7,62.5,9.7,62.5H711.6z"/>
	<g>
		<rect x="604.1" y="835.8" class="st5" width="206.4" height="144.2"/>
		<path class="st14" d="M810.5,970.4v9.6H604.1V835.8h26.5C630.5,835.8,598.9,987.4,810.5,970.4z"/>
	</g>
	<g>
		<rect x="617.8" y="804.7" class="st15" width="179" height="31.1"/>
		<path class="st16" d="M796.8,829.1v6.7h-179v-31.1H636C636,804.7,630.3,842.4,796.8,829.1z"/>
	</g>
</g>
<g>
	<path class="st17" d="M471.8,564.5l1.9-1.9c2.6-2.6,2.7-6.9,0.2-9.7c-38-42.5-39.6-105.9-4.9-150.2c2.2-2.8,2-6.8-0.5-9.3l-1.9-1.9
		c-3-3-7.9-2.7-10.5,0.6c-40,50.7-38.1,123.5,5.5,172.1C464.3,567.2,469,567.4,471.8,564.5z"/>
	<path class="st17" d="M493.1,543.2l1-1c2.6-2.6,2.8-6.8,0.4-9.5c-27-31.2-28.5-76.8-4.7-109.6c2-2.8,1.7-6.6-0.7-9l-1.1-1.1
		c-3.1-3.1-8.1-2.6-10.7,0.9c-28.2,38.6-26.4,92.4,5.5,129.1C485.5,545.9,490.3,546.1,493.1,543.2z"/>
	<path class="st17" d="M513.8,522.5L513.8,522.5c2.6-2.6,2.7-6.6,0.4-9.4c-16.5-20.3-17.9-48.8-4.2-70.5c1.7-2.8,1.3-6.4-1-8.7l0,0
		c-3.2-3.2-8.5-2.6-10.9,1.2c-16.9,26.7-15.2,61.9,5.2,86.9C506,525.2,510.9,525.5,513.8,522.5z"/>
</g>
<g>
	<path class="st17" d="M938.4,564.2c43.6-48.6,45.4-121.5,5.5-172.1c-2.6-3.3-7.5-3.6-10.5-0.6l-1.9,1.9c-2.5,2.5-2.7,6.5-0.5,9.3
		C965.6,447,964,510.5,926,552.9c-2.5,2.8-2.4,7,0.2,9.7l1.9,1.9C931,567.4,935.7,567.2,938.4,564.2z"/>
	<path class="st17" d="M917.1,542.9c31.8-36.7,33.6-90.4,5.5-129.1c-2.5-3.5-7.6-3.9-10.7-0.9l-1.1,1.1c-2.4,2.4-2.8,6.3-0.7,9
		c23.9,32.8,22.3,78.4-4.7,109.6c-2.4,2.8-2.2,6.9,0.4,9.5l1,1C909.7,546.1,914.5,545.9,917.1,542.9z"/>
	<path class="st17" d="M896.6,522c20.3-25,22.1-60.2,5.2-86.9c-2.4-3.8-7.7-4.3-10.9-1.2l0,0c-2.3,2.3-2.7,5.9-1,8.7
		c13.7,21.7,12.3,50.2-4.2,70.5c-2.3,2.8-2.1,6.9,0.4,9.4l0,0C889.1,525.5,894,525.2,896.6,522z"/>
</g>
<g>
	<g>
		<circle class="st18" cx="1161.5" cy="477.9" r="108.6"/>
		<g>
			<path class="st15" d="M1137.6,494.8h84.1c1.6,0,3-1.1,3.4-2.6l14.7-52.8c0.6-2.3-1.1-4.5-3.4-4.5h-109.1c-0.7,0-1.2-0.5-1.3-1.1
				l-3.1-16.4c-0.3-1.5-1.5-2.6-3-2.8l-34.7-5c-1.1-0.2-2.1,0.6-2.2,1.7l0,0c-0.2,1.1,0.6,2.1,1.7,2.2l33.4,4.8
				c0.6,0.1,1.1,0.5,1.2,1.1l14,73.9c0.1,0.6,0.1,1.3-0.2,1.9l-10.1,26.2c-0.9,2.3,0.8,4.8,3.3,4.8h98.5c1.1,0,2-0.9,2-2l0,0
				c0-1.1-0.9-2-2-2h-96.3c-0.7,0-1.3-0.7-1-1.4L1137.6,494.8z M1235.6,440.3l-13.8,49.5c-0.2,0.6-0.7,1.1-1.4,1.1h-82.3
				c-0.7,0-1.3-0.5-1.4-1.2l-9.3-49.2c-0.2-0.8,0.5-1.6,1.3-1.6h105.8C1235.2,438.9,1235.7,439.6,1235.6,440.3z"/>
			<g>
				
					<ellipse transform="matrix(0.1602 -0.9871 0.9871 0.1602 487.5544 1650.4463)" class="st5" cx="1213.7" cy="538.7" rx="7.4" ry="7.4"/>
				<path class="st15" d="M1213.7,542.7L1213.7,542.7c-1.9,0-3.4-1.5-3.4-3.4v-14.8h6.8v14.8
					C1217.1,541.2,1215.6,542.7,1213.7,542.7z"/>
			</g>
			<g>
				
					<ellipse transform="matrix(0.1602 -0.9871 0.9871 0.1602 418.8733 1569.7213)" class="st5" cx="1131.9" cy="538.7" rx="7.4" ry="7.4"/>
				<path class="st15" d="M1131.9,542.7L1131.9,542.7c-1.9,0-3.4-1.5-3.4-3.4v-14.8h6.8v14.8
					C1135.3,541.2,1133.8,542.7,1131.9,542.7z"/>
			</g>
			<path class="st19" d="M1113.4,413.7l-0.4,3.9l-28.2-4c-1-0.1-1.7-1-1.7-1.9c0-0.1,0-0.2,0-0.3c0.2-1.1,1.2-1.8,2.2-1.7
				L1113.4,413.7z"/>
			<g>
				<rect x="1132.8" y="484.5" class="st15" width="93.3" height="1.7"/>
				<rect x="1131.4" y="476.3" class="st15" width="97" height="1.7"/>
				<rect x="1129.2" y="468.2" class="st15" width="101.3" height="1.7"/>
				<rect x="1127.7" y="460.1" class="st15" width="105" height="1.7"/>
				<rect x="1126.3" y="451.9" class="st15" width="108.6" height="1.7"/>
				<rect x="1124.8" y="443.9" class="st15" width="112.3" height="1.7"/>
			</g>
			<g>
				<rect x="1174.5" y="436.6" class="st15" width="1.7" height="56.7"/>
				<rect x="1166.3" y="436.6" class="st15" width="1.7" height="56.7"/>
				<rect x="1158.2" y="436.6" class="st15" width="1.7" height="56.7"/>
				<rect x="1150.1" y="436.6" class="st15" width="1.7" height="56.7"/>
				<rect x="1142" y="436.6" class="st15" width="1.7" height="56.7"/>
				<rect x="1133.9" y="436.6" class="st15" width="1.7" height="56.7"/>
				<rect x="1223.3" y="436.6" class="st15" width="1.7" height="52.5"/>
				<rect x="1215.2" y="436.6" class="st15" width="1.7" height="56.7"/>
				<rect x="1231.3" y="436.6" class="st15" width="1.7" height="25.6"/>
				<rect x="1207.1" y="436.6" class="st15" width="1.7" height="56.7"/>
				<rect x="1198.9" y="436.6" class="st15" width="1.7" height="56.7"/>
				<rect x="1190.8" y="436.6" class="st15" width="1.7" height="56.7"/>
				<rect x="1182.8" y="436.6" class="st15" width="1.7" height="56.7"/>
			</g>
		</g>
	</g>
	<g>
		<circle class="st20" cx="238.6" cy="478" r="108.8"/>
		<g>
			<path class="st21" d="M304.5,522.9H172.7c-5.2,0-9.5-4.2-9.5-9.5v-70.8c0-5.2,4.2-9.5,9.5-9.5h131.8c5.2,0,9.5,4.2,9.5,9.5v70.8
				C314,518.7,309.7,522.9,304.5,522.9z"/>
			<g>
				<path class="st22" d="M202.5,522.9h-0.2c29.6-40.9,15-75.4,6.2-89.8h1.6C245.1,475.3,208.4,516.7,202.5,522.9z"/>
				<path class="st22" d="M203.3,522.9h-0.4c42.7-29.2,27.5-70.4,26.9-72C251.2,495.3,212,518.5,203.3,522.9z"/>
				<path class="st22" d="M208.8,522.9h-3.3c33.7-8,34.8-38.3,34.8-38.3C241.4,513,220.3,520.8,208.8,522.9z"/>
			</g>
			<rect x="163.2" y="448.9" class="st23" width="150.8" height="1.6"/>
			<g>
				<path class="st23" d="M192.7,475.7h-10.2c-2.5,0-4.5-2-4.5-4.5v-7c0-2.5,2-4.5,4.5-4.5h10.2c2.5,0,4.5,2,4.5,4.5v7
					C197.3,473.6,195.2,475.7,192.7,475.7z"/>
				<path class="st24" d="M197.3,465.6h-1.7c-0.2-1-0.5-1.9-0.9-2.8h2.4c-0.1-0.3-0.2-0.5-0.3-0.8h-2.5c-0.6-0.9-1.3-1.8-2.1-2.4
					h-1.5c1,0.6,1.9,1.4,2.6,2.4h-2.1c-0.3-1-0.7-1.8-1.1-2.4h-1c0.5,0.5,0.9,1.4,1.3,2.4h-5.5c0.4-1,0.8-1.9,1.3-2.4h-1
					c-0.4,0.6-0.8,1.4-1.1,2.4H182c0.7-1,1.6-1.9,2.6-2.4h-1.5c-0.8,0.6-1.5,1.5-2.1,2.4h-2.5c-0.1,0.3-0.3,0.5-0.3,0.8h2.4
					c-0.4,0.9-0.7,1.8-0.9,2.8H178v0.8h1.5c0,0.4-0.1,0.8-0.1,1.2c0,0.4,0,0.8,0.1,1.2H178v0.8h1.7c0.2,1,0.5,1.9,0.9,2.8h-2.4
					c0.1,0.3,0.2,0.5,0.3,0.8h2.5c0.6,0.9,1.3,1.8,2.1,2.4h1.4c-1-0.6-1.9-1.4-2.6-2.4h2.1c0.3,1,0.7,1.8,1.1,2.4h1
					c-0.5-0.5-0.9-1.4-1.3-2.4h5.5c-0.4,1-0.8,1.9-1.3,2.4h1c0.4-0.6,0.8-1.4,1.1-2.4h2.1c-0.7,1-1.6,1.9-2.6,2.4h1.5
					c0.8-0.6,1.5-1.5,2.1-2.4h2.5c0.1-0.3,0.2-0.5,0.3-0.8h-2.4c0.4-0.9,0.7-1.8,0.9-2.8h1.7v-0.8h-1.5c0-0.4,0.1-0.8,0.1-1.2
					c0-0.4,0-0.8-0.1-1.2h1.5V465.6z M195,467.7c0,0.4,0,0.8-0.1,1.2h-0.8v0.8h0.7c-0.2,1-0.5,1.9-1,2.8h-12.3
					c-0.5-0.8-0.8-1.8-1-2.8h0.7v-0.8h-0.8c0-0.4-0.1-0.8-0.1-1.2c0-0.4,0-0.8,0.1-1.2h0.8v-0.8h-0.7c0.2-1,0.5-1.9,1-2.8h12.3
					c0.5,0.8,0.8,1.8,1,2.8H194v0.8h0.9C195,466.8,195,467.2,195,467.7z"/>
			</g>
			<g>
				<circle class="st25" cx="281.5" cy="509.2" r="8"/>
				<path class="st23" d="M299.2,509.2c0,4.4-3.6,8-8,8c-4.4,0-8-3.6-8-8c0-4.4,3.6-8,8-8C295.6,501.2,299.2,504.8,299.2,509.2z"/>
			</g>
			<g>
				<g>
					<text transform="matrix(1 0 0 1 174.5806 492.754)" class="st17 st9 st26">1234</text>
				</g>
				<g>
					<text transform="matrix(1 0 0 1 208.144 492.754)" class="st17 st9 st26">5678</text>
				</g>
				<g>
					<text transform="matrix(1 0 0 1 242.0073 492.754)" class="st17 st9 st26">1234</text>
				</g>
				<g>
					<text transform="matrix(1 0 0 1 275.5737 492.754)" class="st17 st9 st26">5678</text>
				</g>
			</g>
			<text transform="matrix(1 0 0 1 174.5806 446.2359)" class="st17 st9 st26">Credit Card</text>
			<text transform="matrix(1 0 0 1 173.521 513.9678)" class="st17 st9 st11">SURNAME</text>
			<text transform="matrix(1 0 0 1 225.9009 507.1153)" class="st17 st9 st27">expires end</text>
			<text transform="matrix(1 0 0 1 225.8979 514.2637)" class="st17 st9 st11">08/2021</text>
		</g>
	</g>
</g>
<g>
	<g>
		<circle class="st28" cx="383.1" cy="826.6" r="108.6"/>
		<g>
			<path class="st15" d="M373.3,760.8v23.5c0,0.8-0.7,1.5-1.5,1.5l0,0c-0.8,0-1.5-0.7-1.5-1.5v-23.5c0-0.9-0.7-1.6-1.6-1.6l0,0
				c-0.9,0-1.6,0.7-1.6,1.6v23.5c0,0.8-0.7,1.5-1.5,1.5l0,0c-0.8,0-1.5-0.7-1.5-1.5v-23.5c0-0.9-0.7-1.6-1.6-1.6l0,0
				c-0.9,0-1.6,0.7-1.6,1.6v23.5c0,0.8-0.7,1.5-1.5,1.5l0,0c-0.8,0-1.5-0.7-1.5-1.5v-23.5c0-0.9-0.7-1.6-1.6-1.6l0,0
				c-0.9,0-1.6,0.7-1.6,1.6v23.5c0,0.8-0.7,1.5-1.5,1.5l0,0c-0.8,0-1.5-0.7-1.5-1.5v-23.5c0-0.9-0.7-1.6-1.6-1.6h-0.3
				c-0.9,0-1.6,0.7-1.6,1.6v34.4c0,5.9,4.8,10.7,10.7,10.7h0.2v10.6c-1.6,0.7-2.7,2.4-2.7,4.2v68.6c0,2.6,2.1,4.7,4.7,4.7h3.3
				c2.6,0,4.7-2.1,4.7-4.7v-68.6c0-1.9-1.1-3.5-2.7-4.2V806h0.2c5.9,0,10.7-4.8,10.7-10.7v-34.4c0-0.9-0.7-1.6-1.6-1.6H375
				C374.1,759.2,373.3,759.9,373.3,760.8z"/>
			<path class="st5" d="M368.7,820.8v68.6c0,2.6-2.1,4.7-4.7,4.7h-3.3c-2.6,0-4.7-2.1-4.7-4.7v-68.6c0-1.9,1.1-3.5,2.7-4.2h7.2
				C367.6,817.3,368.7,818.9,368.7,820.8z"/>
			<path class="st15" d="M418.3,782.6c0-12.9-6.9-23.4-15.4-23.4s-15.4,10.5-15.4,23.4c0,11,5.1,20.3,11.8,22.7v11.3
				c-1.6,0.7-2.7,2.4-2.7,4.2v68.6c0,2.6,2.1,4.7,4.7,4.7h3.3c2.6,0,4.7-2.1,4.7-4.7v-68.6c0-1.9-1.1-3.5-2.7-4.2v-11.3
				C413.2,802.8,418.3,793.6,418.3,782.6z"/>
			<path class="st5" d="M409.1,820.8v68.6c0,2.6-2.1,4.7-4.7,4.7h-3.3c-2.6,0-4.7-2.1-4.7-4.7v-68.6c0-1.9,1.1-3.5,2.7-4.2h7.2
				C408,817.3,409.1,818.9,409.1,820.8z"/>
		</g>
	</g>
	<g>
		<circle class="st29" cx="1016.9" cy="826.6" r="108.6"/>
		<g>
			<g>
				<rect x="998.5" y="773" class="st30" width="91.8" height="107.2"/>
				<rect x="1033.6" y="773" class="st31" width="21.6" height="26.2"/>
				<rect x="1033.6" y="854" class="st31" width="21.6" height="26.2"/>
				<g>
					<path class="st5" d="M1045.1,827v8.1c0,0,0.8,1.9,3.1,2c0.1,0,0.2,0.1,0.2,0.3c0,0.1-0.1,0.3-0.3,0.3h-7.6
						c-0.1,0-0.3-0.1-0.3-0.3c0-0.1,0.1-0.2,0.2-0.3c2.2-0.1,3.1-2,3.1-2V827c-1.9-0.2-3.4-1.9-3.4-3.9v-7.2h2.8l1.3,2.4l-1.7,2.4
						l2.5,2.5l-0.9-2.5l1.8-2.2l-1.1-2.6h3.7v7.2C1048.6,825.1,1047.1,826.8,1045.1,827z"/>
					<path class="st5" d="M1052.4,813.3h-16.1c-3,0-5.4,2.4-5.4,5.4v16.1c0,3,2.4,5.4,5.4,5.4h16.1c3,0,5.4-2.4,5.4-5.4v-16.1
						C1057.8,815.7,1055.4,813.3,1052.4,813.3z M1056.2,834.4c0,2.3-1.9,4.2-4.2,4.2h-15.3c-2.3,0-4.2-1.9-4.2-4.2v-15.3
						c0-2.3,1.9-4.2,4.2-4.2h15.3c2.3,0,4.2,1.9,4.2,4.2V834.4z"/>
				</g>
			</g>
			<rect x="998.5" y="791.9" class="st32" width="41.8" height="88.4"/>
			<g>
				<rect x="943.6" y="795" class="st30" width="91.8" height="85.2"/>
				<rect x="978.7" y="795" class="st31" width="21.6" height="20.8"/>
				<rect x="978.7" y="859.4" class="st31" width="21.6" height="20.8"/>
				<g>
					<path class="st5" d="M990.2,837.9v8.1c0,0,0.8,1.9,3.1,2c0.1,0,0.2,0.1,0.2,0.3c0,0.1-0.1,0.3-0.3,0.3h-7.6
						c-0.1,0-0.3-0.1-0.3-0.3c0-0.1,0.1-0.2,0.2-0.3c2.2-0.1,3.1-2,3.1-2v-8.1c-1.9-0.2-3.4-1.9-3.4-3.9v-7.2h2.8l1.3,2.4l-1.7,2.4
						l2.5,2.5l-0.9-2.5l1.8-2.2l-1.1-2.6h3.7v7.2C993.7,836,992.2,837.6,990.2,837.9z"/>
					<path class="st5" d="M997.5,824.2h-16.1c-3,0-5.4,2.4-5.4,5.4v16.1c0,3,2.4,5.4,5.4,5.4h16.1c3,0,5.4-2.4,5.4-5.4v-16.1
						C1002.9,826.6,1000.5,824.2,997.5,824.2z M1001.3,845.3c0,2.3-1.9,4.2-4.2,4.2h-15.3c-2.3,0-4.2-1.9-4.2-4.2V830
						c0-2.3,1.9-4.2,4.2-4.2h15.3c2.3,0,4.2,1.9,4.2,4.2V845.3z"/>
				</g>
			</g>
		</g>
	</g>
</g>
<g>
	<circle class="st33" cx="994.9" cy="131.4" r="108.6"/>
	<g>
		<path class="st5" d="M912.5,150.4h29.7c-6.2,0-11.5,3.8-13.6,9.3h-10.4c-3.1,0-5.7-2.5-5.7-5.7V150.4z"/>
		<path class="st5" d="M1018.8,150.4v9.3h-62.9c-2.1-5.4-7.4-9.3-13.6-9.3H1018.8z"/>
		<path class="st15" d="M1018.8,150.4H912.5V92.2c0-3.1,2.5-5.7,5.7-5.7h94.9c3.1,0,5.7,2.5,5.7,5.7V150.4z"/>
		<path class="st34" d="M1075.3,137.9v17c0,2.6-2.1,4.7-4.7,4.7h-14.8c-2.1-5.4-7.4-9.3-13.6-9.3c-6.2,0-11.5,3.8-13.6,9.3h-9.8
			v-56.6h22.8c3.5,0,6.8,1.4,9.2,4l21,22.1C1074.1,131.5,1075.3,134.6,1075.3,137.9z"/>
		<path class="st35" d="M1065.1,132.8h-42.9V108h21.2c2,0,3.9,0.8,5.3,2.3l16.4,17.2V132.8z"/>
		<g>
			<circle class="st5" cx="1042.2" cy="165" r="11.2"/>
		</g>
		<g>
			<circle class="st5" cx="942.2" cy="165" r="11.2"/>
		</g>
		<g class="st36">
			<path class="st8" d="M1049.2,110.8l-13.4,22.1h-13.1l15.1-24.9h5.6c2,0,3.9,0.8,5.3,2.3L1049.2,110.8z"/>
			<polygon class="st8" points="1055.1,117 1045.5,132.8 1039.2,132.8 1051.3,113 			"/>
		</g>
		<rect x="913.9" y="108" class="st34" width="103.4" height="15.1"/>
		<rect x="913.9" y="127" class="st34" width="103.4" height="4.9"/>
		<rect x="913.9" y="136.2" class="st34" width="103.4" height="4.9"/>
		<path class="st23" d="M1075.3,142.9l-1.1,1.2c-0.6,0.6-0.9,1.4-0.9,2.2v2.7c0,0.9,0.4,1.7,1,2.3l0.9,0.9l1.3-2.2
			c0.4-0.7,0.6-1.4,0.6-2.2v-1c0-0.9-0.3-1.8-0.9-2.6L1075.3,142.9z"/>
	</g>
</g>
<g>
	<circle class="st37" cx="406.1" cy="131.4" r="108.6"/>
	<g>
		<rect x="345.9" y="98" class="st38" width="120.5" height="89.5"/>
		<g>
			<g>
				<rect x="353.6" y="131.6" class="st5" width="74" height="44.6"/>
				<rect x="355.2" y="133.3" class="st35" width="70.9" height="41.1"/>
				<g class="st36">
					<g>
						<polygon class="st8" points="402.9,133.3 389.7,174.5 359.1,174.5 372.3,133.3 						"/>
						<polygon class="st8" points="420.6,133.3 407.4,174.5 396.1,174.5 409.2,133.3 						"/>
					</g>
				</g>
			</g>
			<g>
				
					<rect x="434.9" y="131.4" transform="matrix(-1 -1.224647e-16 1.224647e-16 -1 893.547 316.6542)" class="st5" width="23.7" height="53.8"/>
				
					<rect x="436.5" y="133.5" transform="matrix(-1 -1.224647e-16 1.224647e-16 -1 893.5469 316.6543)" class="st35" width="20.6" height="49.7"/>
				<g class="st36">
					<g>
						<polygon class="st8" points="457.1,133.5 457.1,135.3 441.7,183.2 436.5,183.2 436.5,159.2 444.7,133.5 						"/>
						<polygon class="st8" points="457.1,143.5 457.1,158.5 449.2,183.2 444.4,183.2 						"/>
					</g>
				</g>
				<path class="st39" d="M439.7,158.8v-4.4c0.4-0.2,0.6-0.6,0.6-1.1c0-0.7-0.5-1.2-1.2-1.2c-0.7,0-1.2,0.5-1.2,1.2
					c0,0.5,0.3,0.9,0.6,1.1v4.4c-0.4,0.2-0.6,0.6-0.6,1.1c0,0.7,0.5,1.2,1.2,1.2c0.7,0,1.2-0.5,1.2-1.2
					C440.3,159.4,440,159,439.7,158.8z"/>
			</g>
		</g>
		<path class="st15" d="M467,187.5H345.3c-2.6,0-4.8,2.1-4.8,4.8v2.8h131.3v-2.8C471.8,189.6,469.6,187.5,467,187.5z"/>
		<g>
			<polygon class="st40" points="470.3,116 341.9,116 345.6,104.9 466.7,104.9 			"/>
			<polygon class="st41" points="415.3,116 397,116 397.8,104.9 414.5,104.9 			"/>
			<polygon class="st41" points="378.6,116 360.3,116 362.5,104.9 380.8,104.9 			"/>
			<polygon class="st41" points="433.6,116 452,116 449.8,104.9 431.4,104.9 			"/>
			<path class="st15" d="M351.1,134.4L351.1,134.4c-5.1,0-9.2-4.1-9.2-9.2V116h18.3v9.2C360.3,130.3,356.2,134.4,351.1,134.4z"/>
			<path class="st42" d="M369.4,134.4L369.4,134.4c-5.1,0-9.2-4.1-9.2-9.2V116h18.3v9.2C378.6,130.3,374.5,134.4,369.4,134.4z"/>
			<path class="st15" d="M387.8,134.4L387.8,134.4c-5.1,0-9.2-4.1-9.2-9.2V116H397v9.2C397,130.3,392.9,134.4,387.8,134.4z"/>
			<path class="st42" d="M406.1,134.4L406.1,134.4c-5.1,0-9.2-4.1-9.2-9.2V116h18.3v9.2C415.3,130.3,411.2,134.4,406.1,134.4z"/>
			<path class="st15" d="M424.5,134.4L424.5,134.4c-5.1,0-9.2-4.1-9.2-9.2V116h18.3v9.2C433.6,130.3,429.5,134.4,424.5,134.4z"/>
			<path class="st15" d="M461.2,134.4L461.2,134.4c-5.1,0-9.2-4.1-9.2-9.2V116h18.3v9.2C470.3,130.3,466.2,134.4,461.2,134.4z"/>
			<path class="st42" d="M442.8,134.4L442.8,134.4c-5.1,0-9.2-4.1-9.2-9.2V116H452v9.2C452,130.3,447.9,134.4,442.8,134.4z"/>
		</g>
		<rect x="343.7" y="100.5" class="st39" width="124.9" height="1.9"/>
		<rect x="343.7" y="96.1" class="st39" width="124.9" height="1.9"/>
		<g>
			<path class="st34" d="M463,90.4H349.2c-1.9,0-3.4-1.5-3.4-3.4V72.9c0-1.9,1.5-3.4,3.4-3.4H463c1.9,0,3.4,1.5,3.4,3.4V87
				C466.4,88.9,464.9,90.4,463,90.4z"/>
			<text transform="matrix(1 0 0 1 370.7505 86.668)" class="st8 st9 st43">S T O R E</text>
		</g>
		<g>
			<rect x="356.6" y="88.7" class="st34" width="2.8" height="7.4"/>
			<rect x="452.8" y="88.7" class="st34" width="2.8" height="7.4"/>
		</g>
	</g>
</g>
</svg>
